<?xml version="1.0" encoding="UTF-8"?>
<svg width="175px" height="147px" viewBox="0 0 175 147" version="1.1" xmlns="http://www.w3.org/2000/svg" xmlns:xlink="http://www.w3.org/1999/xlink">
    <title>D16EA482-3018-4AE7-B7FF-8B493C0E04E3</title>
    <g id="hk.cafe.v1" stroke="none" stroke-width="1" fill="none" fill-rule="evenodd">
        <g id="d.srio.hk-cafe.location-page-opt-2.v1" transform="translate(-1185.000000, -1475.000000)">
            <g id="Group-24" transform="translate(0.000000, 1441.000000)">
                <g id="HK-icon-5" transform="translate(1185.000000, 34.000000)">
                    <path d="M2.13,100.55 L1.13,99.71 L1.73,95.02 C1.73,95.02 1.95,94.25 2.93,94.7 C3.66,95.03 5.02,96.31 7.17,95.7 C8.56486552,95.3791465 9.63457085,94.2583156 9.89,92.85 C10.1,91.85 10.59,91.85 10.89,91.94 C12.4395287,92.3929527 14.0758688,91.5726008 14.64,90.06 C15.23,88.44 14.28,87.84 13.64,87.22 C13.06254,86.6686095 13.0101235,85.7644245 13.52,85.15 C14.34,84.43 15.52,83.15 14.99,81.7 C14.4,79.89 12.37,79.17 12.22,78.12 C12.07,77.07 12.75,76.3 13.73,75.71 C14.13,75.47 14.98,75.18 15.1,74.55 C15.17,74.18 14.45,73.16 14.82,72.55 C15.413738,71.8888148 16.1050551,71.322272 16.87,70.87 C19.0464515,69.5066049 21.3229504,68.3098551 23.68,67.29 L22.13,89.91 L10.82,99.67 L2.13,100.55 Z" id="Path" fill="#231F20" fill-rule="nonzero"></path>
                    <path d="M95.06,82.92 C94.9893796,82.6810166 94.9025106,82.4471385 94.8,82.22 C93.95,80.36 92.28,79.43 89.8,79.43 C87.1570507,79.5724853 84.5633306,80.2031153 82.15,81.29 C81.9821714,81.3607959 81.8021403,81.3981608 81.62,81.4 C81.1492898,81.3984606 80.7103918,81.1621309 80.45,80.77 C80.2172814,80.3873987 79.7976717,80.1585207 79.35,80.17 C79.1271294,80.1724876 78.9066835,80.2165767 78.7,80.3 C78.1205558,80.4681764 77.737233,81.0181613 77.78,81.62 C77.8932212,82.3212395 77.463353,82.9961326 76.78,83.19 C73.28,84.31 73.53,87.82 74,89.39 C74.4127589,90.8533535 75.4689475,92.0493858 76.87,92.64 C77.6080973,92.9180605 78.3912952,93.0570696 79.18,93.05 C81.2324474,92.9222248 83.244851,92.4242057 85.12,91.58 C87.5791559,90.6798559 89.9276573,89.5022502 92.12,88.07 C94.59,86.39 95.57,84.69 95.06,82.92 Z" id="Path" fill="#FFFFFF" fill-rule="nonzero"></path>
                    <path d="M97.46,82.22 C97.3518448,81.8785543 97.2215692,81.5445142 97.07,81.22 C95.82,78.47 93.24,76.96 89.81,76.96 C87.1078965,77.0630266 84.4474369,77.6595118 81.96,78.72 C81.2544383,78.0642999 80.3231025,77.7060938 79.36,77.72 C78.8257895,77.7213019 78.29659,77.8230711 77.8,78.02 C76.4383234,78.5017199 75.4688292,79.7155266 75.3,81.15 C71.46,82.84 70.69,86.91 71.67,90.15 C72.3157895,92.3536322 73.9269279,94.1450121 76.05,95.02 C77.0691887,95.4047154 78.1506478,95.5979542 79.24,95.59 C81.6066374,95.4824155 83.9312435,94.9258675 86.09,93.95 C88.7340671,92.9800433 91.2574135,91.7083035 93.61,90.16 C97.82,87.17 98.03,84.2 97.46,82.22 Z M79.24,93.05 C78.4512952,93.0570696 77.6680973,92.9180605 76.93,92.64 C75.5289475,92.0493858 74.4727589,90.8533535 74.06,89.39 C73.59,87.82 73.34,84.31 76.84,83.19 C77.523353,82.9961326 77.9532212,82.3212395 77.84,81.62 C77.797233,81.0181613 78.1805558,80.4681764 78.76,80.3 C78.9666835,80.2165767 79.1871294,80.1724876 79.41,80.17 C79.8576717,80.1585207 80.2772814,80.3873987 80.51,80.77 C80.7703918,81.1621309 81.2092898,81.3984606 81.68,81.4 C81.8621403,81.3981608 82.0421714,81.3607959 82.21,81.29 C84.6233306,80.2031153 87.2170507,79.5724853 89.86,79.43 C92.33,79.43 94,80.36 94.86,82.22 C94.9625106,82.4471385 95.0493796,82.6810166 95.12,82.92 C95.63,84.69 94.65,86.39 92.24,88.07 C90.0476573,89.5022502 87.6991559,90.6798559 85.24,91.58 C83.3461912,92.4312487 81.3128236,92.9294238 79.24,93.05 L79.24,93.05 Z" id="Shape" fill="#231F20" fill-rule="nonzero"></path>
                    <path d="M122.73,112.04 C124.96,112.04 126.67,111.69 127.63,110.92 C128.205996,110.477896 128.569032,109.81354 128.63,109.09 C128.85,107.09 126.87,105.61 123.49,105 C123,104.85 122.85,105.38 122.86,105.64 C122.889535,107.592805 122.715259,109.543363 122.34,111.46 C122.296149,111.589809 122.315272,111.732638 122.391726,111.846339 C122.468181,111.960041 122.59324,112.031637 122.73,112.04 L122.73,112.04 Z" id="Path" fill="#FFFFFF" fill-rule="nonzero"></path>
                    <path d="M123.06,101.82 C122.57,101.72 122.41,101.44 122.39,101.3 C122.16,100.1 121.88,98.94 121.59,97.76 C120.983586,95.5512228 120.555543,93.2973105 120.31,91.02 C120.32403,90.651834 120.357409,90.2846604 120.41,89.92 C119.3,89.77 118.11,89.58 116.99,89.36 C114.51,88.89 112.07,88.66 109.67,87.96 C105.654855,86.7842473 101.70295,85.4024158 97.83,83.82 C100.22,84.82 102.67,85.82 105.14,86.64 L106.14,86.94 C106.31,87 106.55,87.22 106.19,87.46 C104.14,88.96 101.11,90 98.42,88.73 C97.386592,88.2838671 96.605766,87.4003974 96.29,86.32 C96.0806768,85.4901496 96.1014197,84.6189479 96.35,83.8 C96.3996529,83.5627223 96.6184334,83.3997094 96.86,83.42 C93.69,81.86 91.66,80.94 91.66,80.94 C91.6061995,81.1127186 91.517729,81.2726461 91.4,81.41 C88.0831287,85.4840709 85.1190942,89.8331056 82.54,94.41 C82.4054678,94.61882 82.1677753,94.7376663 81.92,94.72 C79.39,94.54 76.07,95.21 74.05,97.59 C71.05,101.15 72.31,107.45 77.45,114.45 C80.01,117.93 82.86,118.98 84.8,119.24 C85.8260324,119.393484 86.8721229,119.345934 87.88,119.1 C88.43,118.96 89.03,118.77 89.66,118.54 C89.79,118.48 90,118.7 90,118.86 C89.8627582,120.783718 90.4514745,122.689019 91.65,124.2 C93.29,126.28 96.96,127.72 102.56,128.48 C104,128.68 105.56,128.82 107.08,128.9 C111.22,129.12 115.36,128.78 117.56,124.75 C118.516587,122.643186 119.27,120.449917 119.81,118.2 C120.343959,117.264838 120.802093,116.288378 121.18,115.28 C121.273005,114.990483 121.527687,114.782819 121.83,114.75 C125.22,114.9 127.77,114.32 129.42,113.02 C130.599061,112.09842 131.344619,110.730358 131.48,109.24 C131.78,106.49 130.48,103.04 123.06,101.82 Z M91.53,114.02 C91.461502,114.186051 91.3742706,114.343738 91.27,114.49 C89.9887976,115.258309 88.6049839,115.84079 87.16,116.22 C86.5052735,116.379307 85.825359,116.406503 85.16,116.3 C83.79,116.12 81.74,115.3 79.79,112.69 C75.64,107.04 74.26,101.86 76.27,99.49 C77.67,97.84 80.19,97.57 81.76,97.67 C81.9874762,97.7400809 82.182495,97.8890043 82.31,98.09 C84.6666331,103.536327 87.7223137,108.652659 91.4,113.31 C91.5674004,113.506287 91.6169922,113.777134 91.53,114.02 Z M116.41,119.43 C116.035141,120.7632 115.553586,122.064067 114.97,123.32 C113.78,125.5 111.75,126.18 107.24,125.94 C105.76,125.86 104.32,125.73 102.96,125.54 C98.35,124.91 95.07,123.75 93.96,122.35 C92.07,119.98 93.15,117.12 94.11,115.45 C94.2406056,115.271909 94.4650701,115.189211 94.68,115.24 C97.22,115.85 102.98,117.14 110.36,118.14 C112.29,118.41 114.21,118.64 116.1,118.82 C116.26,118.84 116.49,118.88 116.41,119.43 Z M128.6,108.91 C128.539032,109.63354 128.175996,110.297896 127.6,110.74 C126.6,111.5 124.93,111.88 122.7,111.86 C122.5579,111.860927 122.4241,111.793169 122.340755,111.678074 C122.257411,111.562978 122.234782,111.414717 122.28,111.28 C122.654827,109.363301 122.8291,107.412788 122.8,105.46 C122.8,105.2 122.94,104.67 123.43,104.82 C126.84,105.42 128.82,106.92 128.6,108.91 L128.6,108.91 Z" id="Shape" fill="#231F20" fill-rule="nonzero"></path>
                    <path d="M96.35,83.98 C96.101079,84.8023104 96.0803398,85.6768142 96.29,86.51 C96.6058443,87.5880115 97.3871376,88.468342 98.42,88.91 C101.11,90.19 104.14,89.14 106.19,87.65 C106.55,87.4 106.31,87.18 106.14,87.13 L105.14,86.83 C102.67,85.99 100.22,85.04 97.83,84.01 L96.83,83.61 C96.601229,83.5999327 96.3985004,83.7562027 96.35,83.98 L96.35,83.98 Z" id="Path" fill="#FFFFFF" fill-rule="nonzero"></path>
                    <path d="M82.35,98.27 C82.2248626,98.0689271 82.0284368,97.9225006 81.8,97.86 C80.23,97.75 77.71,98.02 76.31,99.68 C74.31,102.05 75.68,107.23 79.83,112.87 C81.78,115.52 83.83,116.3 85.2,116.49 C85.8659598,116.585661 86.5438086,116.558547 87.2,116.41 C88.6468128,116.031446 90.0311794,115.445363 91.31,114.67 C91.4166156,114.525229 91.5040107,114.367245 91.57,114.2 C91.6680764,113.964125 91.633828,113.693943 91.48,113.49 C87.7862263,108.836341 84.7168704,103.719627 82.35,98.27 L82.35,98.27 Z" id="Path" fill="#FFFFFF" fill-rule="nonzero"></path>
                    <path d="M116.13,119 C114.24,118.82 112.32,118.59 110.39,118.33 C103.01,117.33 97.25,116.04 94.71,115.43 C94.4968833,115.371271 94.2696975,115.450985 94.14,115.63 C93.14,117.31 92.14,120.16 93.99,122.54 C95.1,123.93 98.38,125.1 102.99,125.72 C104.35,125.91 105.79,126.04 107.27,126.12 C111.78,126.37 113.81,125.68 115,123.5 C115.583806,122.247599 116.065376,120.950036 116.44,119.62 C116.49,119.07 116.26,119.02 116.13,119 Z" id="Path" fill="#FFFFFF" fill-rule="nonzero"></path>
                    <polygon id="Path" fill="#FFFFFF" fill-rule="nonzero" points="120.3 89.9 120.3 89.89 120.29 89.9"></polygon>
                    <path d="M146.36,22.99 C147.907119,23.2965108 149.376457,23.9121361 150.68,24.8 C152.481405,26.0114965 153.938643,27.6685444 154.91,29.61 L155.8,29.5 L157.16,29.31 C159.531617,28.9863984 161.940252,29.0539619 164.29,29.51 L164.29,29.51 C164.719687,27.0217721 164.655125,24.4732794 164.1,22.01 C163.8859,20.9759452 163.242414,20.0816094 162.33,19.55 C162.020095,19.4070431 161.703005,19.280207 161.38,19.17 C157.55,17.86 151.45,18.1 146.77,18.94 L145.72,19.08 C145.94,20.5 146.17,22.18 146.28,22.97 L146.36,22.99 Z" id="Path" fill="#FFFFFF" fill-rule="nonzero"></path>
                    <path d="M133.45,70.37 C134.204209,70.9537871 135.17678,71.1768203 136.11,70.98 C138.18,70.44 139.22,68.38 139.79,66.53 C140.22,65.01 140.03,62.96 138.7,61.93 C137.553303,61.0303237 135.982094,60.8967709 134.7,61.59 C133.129816,62.7980794 132.145081,64.6149348 131.99,66.59 C131.698007,68.0268926 132.267933,69.5024533 133.45,70.37 L133.45,70.37 Z" id="Path" fill="#231F20" fill-rule="nonzero"></path>
                    <path d="M90.44,46.97 C88.76,47.06 87.44,48.62 86.92,50.11 C86.33,51.96 86,54.25 87.4,55.88 C88.0542212,56.5645121 88.9744343,56.9296761 89.92,56.88 C91.3825573,56.8375287 92.6884519,55.952639 93.27,54.61 C94.2760058,52.8993524 94.5086291,50.8420904 93.91,48.95 C93.2473181,47.661238 91.8866519,46.8848348 90.44,46.97 Z" id="Path" fill="#231F20" fill-rule="nonzero"></path>
                    <path d="M111.13,68.37 L111.46,68.47 C113.02,68.88 114.09,68.47 114.41,67.35 C114.6,66.64 114,65.35 112.41,64.85 L112.22,64.79 C111.405115,64.4877621 110.50219,64.5311025 109.72,64.91 C109.384761,65.0838034 109.135387,65.3873892 109.03,65.75 C108.69,66.92 109.42,67.81 111.13,68.37 Z" id="Path" fill="#FFD100" fill-rule="nonzero"></path>
                    <path d="M171.38,37.93 C170.399477,35.309659 168.237648,33.3072789 165.55,32.53 C164.971345,32.333361 164.379979,32.1763316 163.78,32.06 C161.713102,31.6648276 159.596164,31.6040542 157.51,31.88 L156.19,32.07 L155.71,32.14 C155.930679,33.6268136 155.879857,35.1413252 155.56,36.61 L156.12,36.85 L156.29,36.94 C156.787531,37.1572709 157.263046,37.4218185 157.71,37.73 C159.382031,39.1049934 160.168507,41.2841083 159.76,43.41 C159.473239,44.7563343 158.718557,45.957449 157.63,46.8 C156.195161,47.9427583 154.316413,48.3663974 152.53,47.95 L152.15,47.83 L151.84,47.72 C151.310427,47.4984957 150.815382,47.2021419 150.37,46.84 C149.917002,46.4499701 149.501827,46.0180548 149.13,45.55 L148.93,45.28 C147.728673,45.8977407 146.423327,46.2876492 145.08,46.43 L145.14,46.74 L145.41,47.74 C145.78,49.16 146.93,52.63 149.69,54.37 C150.679428,54.985406 151.769354,55.4220533 152.91,55.66 C156.33,56.35 160.14,55.17 164.26,52.15 C167.36,49.55 173.07,44.63 171.38,37.93 Z" id="Path" fill="#ED40A9" fill-rule="nonzero"></path>
                    <path d="M152.02,44.84 C152.270991,45.0354292 152.546712,45.1968268 152.84,45.32 C152.95075,45.3642183 153.064337,45.4009672 153.18,45.43 C154.188558,45.6398355 155.238072,45.3866311 156.04,44.74 C156.637272,44.2861173 157.052314,43.6334017 157.21,42.9 C157.411699,41.7611763 157.015324,40.5984751 156.16,39.82 C155.844389,39.6117499 155.509521,39.4342696 155.16,39.29 L154.99,39.2 L154.74,39.09 C154.035087,40.6994701 152.979351,42.1310344 151.65,43.28 L151.05,43.83 L151.12,43.92 C151.391529,44.2532807 151.692767,44.5612122 152.02,44.84 L152.02,44.84 Z" id="Path" fill="#ED40A9" fill-rule="nonzero"></path>
                    <path d="M132.26,31.83 C131.85,31.59 131.39,31.32 131.09,31.17 L130.88,31.04 L130.27,30.58 C129.27,29.81 127.68,27.98 128.17,24.45 L128.17,24.38 C128.632419,21.8919586 130.484726,19.8917783 132.93,19.24 C133.910375,18.9796251 134.938548,18.9556344 135.93,19.17 C137.748629,19.4836968 139.310703,20.6413385 140.14,22.29 L140.59,23.2 C141.603455,22.9190382 142.648471,22.7678302 143.7,22.75 C143.47,21.09 143.09,18.5 142.9,17.7 L142.69,16.87 C141.29,12.54 139.49,9.5 137.2,7.58 C136.206484,6.73762855 135.010462,6.16891537 133.73,5.93 C132.202525,5.60323181 130.612529,5.73544151 129.16,6.31 C123.22,9.24 118.74,14.55 115.85,22.08 C114.8,25.24 114.29,29.66 117.75,32.87 C119.061395,33.9763948 120.641031,34.7179271 122.33,35.02 C125.052457,35.4854341 127.842158,35.3764348 130.52,34.7 L132.04,34.39 C132.076758,33.548033 132.190567,32.7112032 132.38,31.89 L132.26,31.83 Z" id="Path" fill="#ED40A9" fill-rule="nonzero"></path>
                    <path d="M137.78,23.42 C137.301362,22.5034504 136.412849,21.8714532 135.39,21.72 C134.811161,21.5844676 134.208839,21.5844676 133.63,21.72 C132.15341,22.1161444 131.031765,23.3192934 130.74,24.82 C130.407976,26.1612251 130.842479,27.5762437 131.87,28.5 L132.35,28.87 C132.62,29 132.93,29.18 133.24,29.36 C134.148877,27.4023055 135.608321,25.7517435 137.44,24.61 C137.68,24.45 137.92,24.32 138.17,24.18 L137.78,23.42 Z" id="Path" fill="#ED40A9" fill-rule="nonzero"></path>
                    <path d="M149.86,41.41 L149.95,41.32 C152.612195,38.943502 153.782508,35.3139997 153.01,31.83 C152.322339,29.8337974 150.993201,28.1213891 149.23,26.96 C148.210966,26.2562142 147.056406,25.7725932 145.84,25.54 C143.429354,25.0150316 140.908877,25.4759188 138.84,26.82 L138.79,26.82 C135.62,28.76 133.98,32.97 134.79,37.07 C135.575524,39.8675064 137.598125,42.1516821 140.28,43.27 C140.4892,43.3438288 140.702986,43.4039561 140.92,43.45 L141.01,43.45 C141.29,43.53 141.58,43.6 141.87,43.66 C144.743527,44.3579379 147.772928,43.5048526 149.86,41.41 L149.86,41.41 Z" id="Path" fill="#ED40A9" fill-rule="nonzero"></path>
                    <path d="M167.73,68.55 C170.32,69.18 171.16,69.38 171.45,68.55 C171.74,67.72 170.1,66.77 168.67,66.16 C166.628974,65.2606048 164.514556,64.5379555 162.35,64 L162.44,63.68 C163.00032,61.1940022 163.308546,58.6578414 163.36,56.11 L163.36,55.92 C164.21115,55.420039 165.035606,54.8759646 165.83,54.29 L165.9,54.23 C169.19,51.43 176.02,45.59 173.9,37.23 L173.9,37.14 C172.726387,33.9065902 170.153218,31.3775325 166.9,30.26 L166.9,30.26 C167.445531,27.2767271 167.370641,24.2130554 166.68,21.26 C166.289132,19.4817646 165.111969,17.9772027 163.48,17.17 C163.095545,16.9919005 162.701622,16.8349987 162.3,16.7 C157.69,15.12 150.92,15.53 146.19,16.41 L145.29,16.54 L145.21,16.21 L145.21,16.12 C143.65,11.28 141.58,7.83 138.92,5.61 C137.593125,4.47252875 135.988782,3.70658426 134.27,3.39 C132.226203,2.9509748 130.097674,3.13560989 128.16,3.92 L128.08,3.92 C124.492124,5.69775627 121.348386,8.25716947 118.88,11.41 L118.05,11.23 C114.944951,10.6430314 111.804974,10.2588853 108.65,10.08 L107.86,10.08 L107.72,9.95 L107.23,9.47 C105.92,8.07 99.9,2.47 94.45,0.61 C92.8060204,-0.0433689563 91.0002675,-0.172600791 89.28,0.24 C85.7,1.24 81.76,6.29 79.9,12.18 C78.9430193,15.5211976 78.560911,19.00075 78.77,22.47 L78.55,22.7 C74.2629017,27.1455818 71.0956068,32.5478077 69.31,38.46 C66.9832266,37.8363061 64.602585,37.43451 62.2,37.26 C60.65,37.12 58.76,37.14 58.62,38.06 C58.48,38.98 59.33,39.13 61.92,39.79 C63.09,40.1 65.53,40.67 68.54,41.54 C68.0730673,43.874251 67.8419058,46.2495193 67.85,48.63 C66.47,48.52 65.03,48.45 63.6,48.45 C61.74,48.45 59.42,48.95 59.37,49.83 C59.32,50.71 60.37,50.74 62.49,50.91 C64.25,51.06 66.21,51.26 67.98,51.44 C67.98,51.53 67.98,51.62 67.98,51.71 C68.2127885,54.1989462 68.7226103,56.6541404 69.5,59.03 C66.9622548,59.3290741 64.4580259,59.8647381 62.02,60.63 C60.28,61.12 58.93,62.15 59.02,63 C59.11,63.85 60.81,63.54 62.48,63.18 C65.04,62.64 67.65,62.18 70.54,61.83 C71.0332143,62.9821666 71.5941953,64.1041286 72.22,65.19 L72.22,65.26 C75.8403171,70.5700673 80.6296187,74.9796457 86.22,78.15 C86.22,78.15 86.76,78.49 87.74,79.05 L89.48,77.05 C89.06,76.79 88.66,76.54 88.28,76.28 C82.7316806,73.2803388 77.9746226,69.0065266 74.4,63.81 C74.02,63.15 73.61,62.37 73.2,61.49 L74.92,61.33 C77.23,61.13 76.92,59.03 75.2,58.93 C74.08,58.87 73.07,58.85 72.13,58.86 C71.3167992,56.5411683 70.7797607,54.1345645 70.53,51.69 L72.62,51.92 C74.33,52.11 75.41,52.25 75.71,51.54 C76.17,50.41 74.88,49.76 74.09,49.54 C72.8656179,49.2533056 71.6273205,49.0296777 70.38,48.87 C70.3484845,46.6550651 70.5495866,44.4429413 70.98,42.27 C72.76,42.83 74.65,43.49 76.54,44.27 C78.43,45.05 79.9,43.01 77.54,41.79 C75.6592529,40.8049803 73.7149438,39.9464108 71.72,39.22 C73.3393383,33.9184055 76.1239808,29.0461353 79.87,24.96 L80.53,24.26 L80.84,23.97 C80.8785919,23.9346922 80.9122302,23.8943262 80.94,23.85 C82.35,22.44 83.87,21.04 85.12,20.03 C86.85,18.63 86.24,17.35 84.38,18.26 C83.2904208,18.7812369 82.2467248,19.3934047 81.26,20.09 C81.2393402,17.6671383 81.5763025,15.2544878 82.26,12.93 C84,7.4 87.5,3.4 89.88,2.72 C91.0832205,2.46254046 92.3365054,2.58123596 93.47,3.06 C97.91,4.58 103.37,9.3 105.21,11.26 L105.74,11.78 C105.91,11.95 106.04,12.07 106.18,12.22 C106.235363,12.2753162 106.295607,12.32552 106.36,12.37 C106.653316,12.5730358 107.003358,12.6780484 107.36,12.67 C107.64,12.67 107.98,12.67 108.42,12.67 C111.043254,12.8021819 113.655303,13.1028014 116.24,13.57 L117.02,13.72 C115.510748,16.0414062 114.2568,18.5191257 113.28,21.11 L113.28,21.16 C111.44,26.65 112.36,31.46 115.89,34.73 C117.057913,35.7491889 118.417939,36.5244036 119.89,37.01 C120.484155,37.2166891 121.092386,37.3804436 121.71,37.5 C124.778903,38.0346956 127.92544,37.9257246 130.95,37.18 L132.08,36.95 C132.08,37.16 132.15,37.38 132.19,37.6 L132.19,37.74 C133.198538,41.3602552 135.844846,44.2989524 139.34,45.68 C139.63,45.78 139.92,45.86 140.21,45.93 C140.5,46 140.9,46.12 141.26,46.19 C141.62,46.26 141.94,46.31 142.26,46.35 L142.44,47.22 L142.73,48.38 C143.18,50.09 144.59,54.32 148.15,56.56 C148.95999,57.0584777 149.821706,57.4675412 150.72,57.78 C151.213179,57.9516388 151.717739,58.0886385 152.23,58.19 C155.03086,58.7032125 157.921521,58.35452 160.52,57.19 L160.52,57.56 C160.416952,59.3746707 160.162737,61.177586 159.76,62.95 C159.76,63.1 159.68,63.24 159.63,63.39 C157.347584,63.0293495 155.040728,62.8454697 152.73,62.84 C150.09,62.84 150.51,65.29 152.47,65.5 C154.64,65.73 156.76,66.06 158.7,66.43 C157.981035,68.5500894 157.087992,70.6070979 156.03,72.58 C154.763563,72.0908068 153.471691,71.6701973 152.16,71.32 C151.37,71.12 149.91,71.08 149.79,72.32 C149.71,73.08 150.73,73.47 152.33,74.11 L154.58,75.01 C153.206169,77.0769093 151.550143,78.9416205 149.66,80.55 C148.8,80.07 147.85,79.55 146.76,79.08 C145.17,78.34 143.93,80.08 145.87,81.33 C146.39,81.66 146.87,82 147.37,82.33 C147.01,82.59 146.65,82.83 146.3,83.07 C141.16,86.64 134.4,88.23 126.21,87.76 C124.76,87.69 123.27,87.54 121.76,87.36 L121.24,87.28 L120.15,89.86 L120.15,89.86 C121.07,89.97 121.99,90.06 122.93,90.12 C123.87,90.18 125.03,90.32 126.05,90.37 C134.84,90.87 142.15,89.13 147.75,85.23 C148.37,84.82 149.01,84.38 149.66,83.9 C152,85.55 154.08,87.16 156.05,88.82 C157.36,89.92 158.72,90.93 159.19,90.28 C159.66,89.63 158.98,88.05 157.67,86.79 C155.922745,85.0217323 154.021949,83.41208 151.99,81.98 C153.909513,80.20501 155.59025,78.1881255 156.99,75.98 C158.56,76.62 160.27,77.33 161.8,77.98 C163.73,78.81 164.74,79.22 165.07,78.48 C165.4,77.74 163.65,76.16 162.01,75.29 C160.82,74.66 159.6,74.08 158.4,73.56 C159.531959,71.4375146 160.482024,69.2229252 161.24,66.94 C164.32,67.62 166.6,68.23 167.73,68.55 Z M146.82,18.95 C151.5,18.11 157.6,17.87 161.43,19.18 C161.753005,19.290207 162.070095,19.4170431 162.38,19.56 C163.292414,20.0916094 163.9359,20.9859452 164.15,22.02 C164.705125,24.4832794 164.769687,27.0317721 164.34,29.52 L164.34,29.52 C161.990252,29.0639619 159.581617,28.9963984 157.21,29.32 L155.85,29.51 L154.96,29.62 C153.988643,27.6785444 152.531405,26.0214965 150.73,24.81 C149.426457,23.9221361 147.957119,23.3065108 146.41,23 L146.41,23 C146.3,22.21 146.07,20.53 145.85,19.11 L146.82,18.95 Z M151.67,43.28 C152.999351,42.1310344 154.055087,40.6994701 154.76,39.09 L155.01,39.2 L155.18,39.29 C155.529521,39.4342696 155.864389,39.6117499 156.18,39.82 C157.035324,40.5984751 157.431699,41.7611763 157.23,42.9 C157.072314,43.6334017 156.657272,44.2861173 156.06,44.74 C155.258072,45.3866311 154.208558,45.6398355 153.2,45.43 C153.084337,45.4009672 152.97075,45.3642183 152.86,45.32 C152.566712,45.1968268 152.290991,45.0354292 152.04,44.84 C151.719709,44.5603041 151.425192,44.2523999 151.16,43.92 L151.09,43.83 L151.67,43.28 Z M130.5,34.7 C127.822158,35.3764348 125.032457,35.4854341 122.31,35.02 C120.621031,34.7179271 119.041395,33.9763948 117.73,32.87 C114.27,29.66 114.73,25.24 115.83,22.08 C118.72,14.55 123.2,9.24 129.14,6.31 C130.592529,5.73544151 132.182525,5.60323181 133.71,5.93 C134.990462,6.16891537 136.186484,6.73762855 137.18,7.58 C139.47,9.5 141.27,12.58 142.67,16.87 L142.88,17.7 C143.07,18.5 143.45,21.09 143.68,22.75 C142.628471,22.7678302 141.583455,22.9190382 140.57,23.2 L140.12,22.29 C139.290703,20.6413385 137.728629,19.4836968 135.91,19.17 C134.918548,18.9556344 133.890375,18.9796251 132.91,19.24 C130.464726,19.8917783 128.612419,21.8919586 128.15,24.38 L128.15,24.45 C127.66,27.98 129.26,29.81 130.25,30.58 L130.86,31.04 L131.07,31.17 C131.37,31.32 131.83,31.59 132.24,31.83 L132.34,31.89 C132.150567,32.7112032 132.036758,33.548033 132,34.39 L130.5,34.7 Z M133.24,29.39 C132.93,29.21 132.62,29.03 132.35,28.9 L131.87,28.53 C130.842479,27.6062437 130.407976,26.1912251 130.74,24.85 C131.031765,23.3492934 132.15341,22.1461444 133.63,21.75 C134.208839,21.6144676 134.811161,21.6144676 135.39,21.75 C136.412849,21.9014532 137.301362,22.5334504 137.78,23.45 L138.17,24.24 C137.92,24.38 137.68,24.51 137.44,24.67 C135.612709,25.8037083 134.153703,27.4433533 133.24,29.39 L133.24,29.39 Z M141.9,43.71 C141.61,43.65 141.32,43.58 141.04,43.5 L140.95,43.5 C140.732986,43.4539561 140.5192,43.3938288 140.31,43.32 C137.628125,42.2016821 135.605524,39.9175064 134.82,37.12 C134.01,33.02 135.65,28.81 138.82,26.87 L138.87,26.87 C140.938877,25.5259188 143.459354,25.0650316 145.87,25.59 C147.086406,25.8225932 148.240966,26.3062142 149.26,27.01 C151.023201,28.1713891 152.352339,29.8837974 153.04,31.88 C153.812508,35.3639997 152.642195,38.993502 149.98,41.37 L149.89,41.46 C147.802928,43.5548526 144.773527,44.4079379 141.9,43.71 L141.9,43.71 Z M152.9,55.71 C151.759354,55.4720533 150.669428,55.035406 149.68,54.42 C146.92,52.68 145.77,49.21 145.4,47.79 L145.13,46.79 L145.07,46.48 C146.413327,46.3376492 147.718673,45.9477407 148.92,45.33 L149.12,45.6 C149.495473,46.0650388 149.913995,46.4936055 150.37,46.88 C150.815382,47.2421419 151.310427,47.5384957 151.84,47.76 L152.15,47.87 L152.53,47.99 C154.316413,48.4063974 156.195161,47.9827583 157.63,46.84 C158.718557,45.997449 159.473239,44.7963343 159.76,43.45 C160.168507,41.3241083 159.382031,39.1449934 157.71,37.77 C157.263046,37.4618185 156.787531,37.1972709 156.29,36.98 L156.12,36.89 L155.56,36.65 C155.879857,35.1813252 155.930679,33.6668136 155.71,32.18 L156.19,32.11 L157.51,31.92 C159.596164,31.6440542 161.713102,31.7048276 163.78,32.1 C164.379979,32.2163316 164.971345,32.373361 165.55,32.57 C168.237648,33.3472789 170.399477,35.349659 171.38,37.97 C173.07,44.67 167.38,49.58 164.25,52.24 C160.13,55.22 156.32,56.4 152.9,55.71 L152.9,55.71 Z" id="Shape" fill="#231F20" fill-rule="nonzero"></path>
                    <path d="M120.29,89.9 L120.29,89.9 L121.38,87.32 C115.907362,86.4824107 110.507863,85.2219704 105.23,83.55 C105.23,83.55 95.33,80.55 89.54,77.07 L87.8,79.07 C92.06,81.55 104.91,88.18 120.29,89.9 Z" id="Path" fill="#231F20" fill-rule="nonzero"></path>
                    <path d="M110.62,70 L110.62,70 L111.09,70.13 C114.23,70.99 115.83,69.51 116.29,67.85 C116.75,66.19 115.57,64.05 112.95,63.21 L112.66,63.12 C111.325858,62.6571223 109.861099,62.7545324 108.6,63.39 C107.895854,63.7820477 107.374802,64.4360573 107.15,65.21 C106.57,67.36 107.83,69.1 110.62,70 Z" id="Path"></path>
                    <path d="M90.44,46.97 C88.76,47.06 87.44,48.62 86.92,50.11 C86.33,51.96 86,54.25 87.4,55.88 C88.0542212,56.5645121 88.9744343,56.9296761 89.92,56.88 C91.3825573,56.8375287 92.6884519,55.952639 93.27,54.61 C94.2760058,52.8993524 94.5086291,50.8420904 93.91,48.95 C93.2473181,47.661238 91.8866519,46.8848348 90.44,46.97 Z" id="Path"></path>
                    <path d="M138.7,61.93 C137.553303,61.0303237 135.982094,60.8967709 134.7,61.59 C133.129816,62.7980794 132.145081,64.6149348 131.99,66.59 C131.700002,68.0216367 132.2654,69.4916701 133.44,70.36 C134.194209,70.9437871 135.16678,71.1668203 136.1,70.97 C138.17,70.43 139.21,68.37 139.78,66.52 C140.22,65.01 140.03,62.96 138.7,61.93 Z" id="Path"></path>
                    <path d="M152.3,71.38 C153.611691,71.7301973 154.903563,72.1508068 156.17,72.64 C157.227992,70.6670979 158.121035,68.6100894 158.84,66.49 C156.9,66.12 154.78,65.79 152.61,65.56 C150.61,65.35 150.23,62.87 152.87,62.9 C155.180728,62.9054697 157.487584,63.0893495 159.77,63.45 C159.82,63.3 159.86,63.16 159.9,63.01 C160.302737,61.237586 160.556952,59.4346707 160.66,57.62 L160.66,57.25 C158.061521,58.41452 155.17086,58.7632125 152.37,58.25 C151.857739,58.1486385 151.353179,58.0116388 150.86,57.84 C149.961706,57.5275412 149.09999,57.1184777 148.29,56.62 C144.73,54.38 143.29,50.15 142.87,48.44 L142.58,47.28 L142.4,46.41 C142.06,46.41 141.72,46.32 141.4,46.25 C141.08,46.18 140.69,46.09 140.35,45.99 C140.01,45.89 139.77,45.84 139.48,45.74 C135.984846,44.3589524 133.338538,41.4202552 132.33,37.8 L132.33,37.66 C132.33,37.44 132.26,37.22 132.22,37.01 L131.09,37.24 C128.06544,37.9857246 124.918903,38.0946956 121.85,37.56 C121.232386,37.4404436 120.624155,37.2766891 120.03,37.07 C118.557939,36.5844036 117.197913,35.8091889 116.03,34.79 C112.5,31.52 111.58,26.71 113.42,21.22 L113.42,21.17 C114.3968,18.5791257 115.650748,16.1014062 117.16,13.78 L116.38,13.63 C113.795303,13.1628014 111.183254,12.8621819 108.56,12.73 C108.12,12.73 107.78,12.73 107.5,12.73 C107.143358,12.7380484 106.793316,12.6330358 106.5,12.43 C106.435607,12.38552 106.375363,12.3353162 106.32,12.28 C106.18,12.13 106.05,12.01 105.88,11.84 L105.35,11.32 C103.51,9.32 98.05,4.64 93.61,3.12 C92.4765054,2.64123596 91.2232205,2.52254046 90.02,2.78 C87.64,3.46 84.14,7.46 82.4,12.99 C81.7163025,15.3144878 81.3793402,17.7271383 81.4,20.15 C82.3867248,19.4534047 83.4304208,18.8412369 84.52,18.32 C86.38,17.41 86.99,18.69 85.26,20.09 C84.01,21.09 82.49,22.5 81.08,23.91 C81.0522302,23.9543262 81.0185919,23.9946922 80.98,24.03 L80.67,24.32 L80.01,25.02 C76.2639808,29.1061353 73.4793383,33.9784055 71.86,39.28 C73.8549438,40.0064108 75.7992529,40.8649803 77.68,41.85 C80.02,43.07 78.48,45.07 76.68,44.33 C74.88,43.59 72.9,42.9 71.12,42.33 C70.6895866,44.5029413 70.4884845,46.7150651 70.52,48.93 C71.7673205,49.0896777 73.0056179,49.3133056 74.23,49.6 C75.02,49.8 76.31,50.45 75.85,51.6 C75.55,52.31 74.47,52.17 72.76,51.98 L70.67,51.75 C70.9197607,54.1945645 71.4567992,56.6011683 72.27,58.92 C73.21,58.92 74.22,58.92 75.34,58.99 C77.09,59.09 77.34,61.19 75.06,61.39 L73.34,61.55 C73.75,62.43 74.16,63.21 74.54,63.87 C78.1146226,69.0665266 82.8716806,73.3403388 88.42,76.34 C88.8,76.6 89.2,76.85 89.62,77.11 C95.41,80.63 105.31,83.59 105.31,83.59 C110.588684,85.2518155 115.98817,86.5022227 121.46,87.33 L121.98,87.41 C123.49,87.59 124.98,87.74 126.43,87.81 C134.62,88.28 141.38,86.69 146.52,83.12 C146.87,82.88 147.23,82.64 147.59,82.38 C147.11,82.06 146.59,81.72 146.09,81.38 C144.15,80.11 145.39,78.38 146.98,79.13 C148.07,79.63 148.98,80.13 149.88,80.6 C151.770143,78.9916205 153.426169,77.1269093 154.8,75.06 L152.55,74.16 C150.95,73.52 149.93,73.16 150.01,72.37 C150.05,71.14 151.51,71.18 152.3,71.38 Z M93.3,54.63 C92.7184519,55.972639 91.4125573,56.8575287 89.95,56.9 C89.0044343,56.9496761 88.0842212,56.5845121 87.43,55.9 C86.03,54.27 86.36,51.98 86.95,50.13 C87.47,48.64 88.79,47.08 90.47,46.99 C91.9211813,46.90852 93.2830629,47.6934662 93.94,48.99 C94.523662,50.8802134 94.2802616,52.9291357 93.27,54.63 L93.3,54.63 Z M108.63,63.4 C109.891099,62.7645324 111.355858,62.6671223 112.69,63.13 L112.98,63.22 C115.6,64.06 116.75,66.29 116.32,67.86 C115.89,69.43 114.26,71 111.12,70.14 L110.65,70.01 L110.65,70.01 C107.86,69.11 106.6,67.37 107.18,65.23 C107.395254,64.4574967 107.905159,63.8003648 108.6,63.4 L108.63,63.4 Z M136.13,70.98 C135.19678,71.1768203 134.224209,70.9537871 133.47,70.37 C132.2954,69.5016701 131.730002,68.0316367 132.02,66.6 C132.175081,64.6249348 133.159816,62.8080794 134.73,61.6 C136.012094,60.9067709 137.583303,61.0403237 138.73,61.94 C140.06,62.94 140.25,65.02 139.82,66.54 C139.22,68.38 138.18,70.44 136.13,70.98 Z" id="Shape" fill="#FFFFFF" fill-rule="nonzero"></path>
                    <polygon id="Path" points="52.24 142.49 52.24 142.49 51.11 142.7"></polygon>
                    <path d="M79.88,133.05 C80.19,132.89 80.49,132.72 80.79,132.55 L79.88,133.05 Z" id="Path"></path>
                    <path d="M31.07,72.55 C31.1882525,73.226 31.3485639,73.8939641 31.55,74.55 C31.3485639,73.8939641 31.1882525,73.226 31.07,72.55 Z" id="Path"></path>
                    <path d="M66.54,59.49 C65.932365,59.2138188 65.3037137,58.9864343 64.66,58.81 C65.3037137,58.9864343 65.932365,59.2138188 66.54,59.49 L66.54,59.49 Z" id="Path"></path>
                    <path d="M88.13,73.47 C89.26,70.1 90.22,65.59 87.99,61.78 C90.13,65.55 89.21,70.1 88.13,73.47 Z" id="Path"></path>
                    <path d="M77.88,75.99 C78.3461994,75.4790565 78.7246437,74.8944951 79,74.26 C78.7246437,74.8944951 78.3461994,75.4790565 77.88,75.99 Z" id="Path"></path>
                    <path d="M96.13,96.61 C96.2127045,99.2125643 95.9538318,101.81474 95.36,104.35 C95.1470311,105.329448 94.8731659,106.294656 94.54,107.24 C94.28,108 94.01,108.72 93.73,109.4 C91.33,115.76 86.32,121.31 78.83,125.86 C77.83,126.49 76.72,127.09 75.6,127.69 L75.6,127.69 L74.87,128.07 L74.87,128.07 C72.94,129.07 71.02,130 69.13,130.82 C59.42,135.82 42.81,137.89 42.81,137.89 C38.41,138.54 29.55,139.33 20.42,135.64 L20.35,135.64 C19.2273759,135.097585 18.1356994,134.493323 17.08,133.83 C16.8602056,133.716531 16.6495703,133.586138 16.45,133.44 L16.45,133.44 C16.67,133.7 16.89,133.93 17.11,134.17 C18.1484106,135.325354 19.2715241,136.401671 20.47,137.39 C20.72,137.59 20.96,137.77 21.21,137.95 L21.21,137.95 L21.42,138.1 L21.81,138.4 L21.81,138.4 C22.38,138.79 23.28,139.4 24.17,139.96 L24.17,139.96 C24.3,140.03 24.42,140.09 24.54,140.17 C25.1562918,140.547002 25.7978087,140.881125 26.46,141.17 C28.8054862,142.092788 31.2425547,142.763233 33.73,143.17 C34.9,143.37 36.04,143.51 37.14,143.6 C39.5824619,143.802857 42.0375381,143.802857 44.48,143.6 C45.72,143.5 46.8,143.35 47.68,143.22 L49.16,142.98 L51.16,142.66 L52.29,142.45 L53.07,142.31 L53.07,142.31 L53.26,142.31 L53.48,142.31 L53.77,142.26 L54.7,142.07 L54.7,142.07 L54.78,142.07 C55.78,141.86 67.89,139.44 71.12,137.27 C72.94,136.57 74.77,135.78 76.54,134.91 C77.13,134.62 77.72,134.32 78.29,134.02 C78.63,133.84 78.96,133.66 79.29,133.47 L79.29,133.47 C79.5,133.35 79.71,133.23 79.93,133.12 L80.84,132.62 C81.4,132.3 81.95,131.98 82.49,131.62 C84.3591509,130.49576 86.1408685,129.232178 87.82,127.84 C90.3135564,125.804514 92.4701061,123.388098 94.21,120.68 C94.37,120.42 94.5,120.16 94.65,119.9 C95.0999526,119.133043 95.5072385,118.34184 95.87,117.53 C96.6107199,115.920585 97.2031718,114.246992 97.64,112.53 L97.64,112.53 C97.78,112 97.91,111.45 98.02,110.88 C98.3996534,109.018006 98.5740284,107.120001 98.54,105.22 L98.54,105.22 C98.4822425,99.7964032 97.3220638,94.441209 95.13,89.48 C95.4556676,90.9154484 95.7027021,92.3676106 95.87,93.83 C96.0272594,94.7487034 96.1141785,95.6780686 96.13,96.61 L96.13,96.61 Z" id="Path" fill="#CA8342" fill-rule="nonzero"></path>
                    <path d="M92.39,81.09 L92.39,81.09 L92.63,81.58 C92.56797,81.4084619 92.4874984,81.2441658 92.39,81.09 Z" id="Path" fill="#CA8342" fill-rule="nonzero"></path>
                    <polygon id="Path" fill="#CA8342" fill-rule="nonzero" points="74.9 125.1 75.8 124.59 74.9 125.09"></polygon>
                    <path d="M93.36,94.39 C92.52,94.59 91.73,94.81 91.01,95.03 C91.73,94.81 92.52,94.55 93.36,94.39 Z" id="Path" fill="#CA8342" fill-rule="nonzero"></path>
                    <polygon id="Path" fill="#CA8342" fill-rule="nonzero" points="47.26 134.55 47.26 134.55 46.13 134.75"></polygon>
                    <path d="M73.57,105.55 C74.5160102,105.602397 75.4373211,105.236798 76.09,104.55 C77.49,102.94 77.18,100.67 76.61,98.82 C76.11,97.33 74.81,95.76 73.14,95.66 C71.6875612,95.5732092 70.322972,96.3597159 69.67,97.66 C69.0622626,99.539055 69.2765399,101.5874 70.26,103.3 C70.835455,104.626931 72.1244216,105.503117 73.57,105.55 L73.57,105.55 Z" id="Path" fill="#231F20" fill-rule="nonzero"></path>
                    <path d="M53.52,116.44 L53.85,116.34 C55.37,115.81 56.02,114.87 55.64,113.76 C55.5117211,113.452935 55.2823908,113.198908 54.99,113.04 C54.2488665,112.641471 53.3744278,112.572532 52.58,112.85 L52.38,112.91 C51.53752,113.118126 50.8156955,113.659495 50.38,114.41 C50.2061373,114.7429 50.1702173,115.130836 50.28,115.49 C50.4012626,115.884416 50.665076,116.21953 51.02,116.43 C51.816278,116.778038 52.7209633,116.781657 53.52,116.44 Z" id="Path" fill="#DEA36D" fill-rule="nonzero"></path>
                    <path d="M30.25,118.9 C31.4284017,118.042464 32.005117,116.581192 31.73,115.15 C31.5872537,113.183041 30.6214119,111.367549 29.07,110.15 C27.7949147,109.442894 26.2209127,109.564879 25.07,110.46 C23.74,111.46 23.53,113.51 23.94,115.02 C24.5,116.87 25.52,118.93 27.57,119.48 C28.5051072,119.698593 29.4889502,119.485672 30.25,118.9 Z" id="Path" fill="#231F20" fill-rule="nonzero"></path>
                    <path d="M54.01,118.08 L54.01,118.08 L54.47,117.94 C57.54,116.87 58.02,114.76 57.47,113.13 C56.92,111.5 54.73,110.43 52.12,111.2 L51.82,111.3 C50.4677989,111.667627 49.3212016,112.565434 48.64,113.79 C48.2828414,114.507979 48.2217966,115.33747 48.47,116.1 C49.19,118.19 51.22,118.91 54.01,118.08 Z M50.3,115.49 C50.1902173,115.130836 50.2261373,114.7429 50.4,114.41 C50.8356955,113.659495 51.55752,113.118126 52.4,112.91 L52.6,112.85 C53.3944278,112.572532 54.2688665,112.641471 55.01,113.04 C55.3023908,113.198908 55.5317211,113.452935 55.66,113.76 C56.04,114.87 55.39,115.76 53.87,116.34 L53.54,116.44 C52.7481098,116.779108 51.8518902,116.779108 51.06,116.44 C50.6955732,116.230921 50.4239831,115.891434 50.3,115.49 L50.3,115.49 Z" id="Shape" fill="#231F20" fill-rule="nonzero"></path>
                    <path d="M56.67,57.03 C57.22,57.79 57.67,58.47 57.95,58.9 C58.3212718,58.7834134 58.6984688,58.6866106 59.08,58.61 C59.9394874,58.4425201 60.8146048,58.3687554 61.69,58.39 L62.53,58.39 C63.2497702,58.453956 63.962518,58.5811129 64.66,58.77 C65.3037137,58.9464343 65.932365,59.1738188 66.54,59.45 C67.228322,59.7441487 67.8822448,60.1130283 68.49,60.55 C68.72,60.38 68.96,60.22 69.18,60.05 L70.27,59.24 C70.61,58.99 71,58.72 71.44,58.44 C71.88,58.16 72.35,57.88 72.88,57.59 C73.14,57.45 73.41,57.31 73.69,57.18 C74.5809406,56.7414853 75.5035308,56.3704436 76.45,56.07 L76.16,55.33 L75.86,54.6 L75.33,53.6 C75.15,53.27 74.96,52.95 74.78,52.6 C74.087055,51.3948189 73.2655967,50.2682475 72.33,49.24 C72.0752307,48.9646335 71.804781,48.7042005 71.52,48.46 L71.37,48.33 L70.99,48.05 C70.7508771,47.8855342 70.5002299,47.7384879 70.24,47.61 C69.7159553,47.3320097 69.117377,47.226996 68.53,47.31 C67.5618434,47.4912358 66.6185918,47.7866313 65.72,48.19 C64.7625815,48.6119364 63.8339153,49.0963127 62.94,49.64 C62.48,49.92 62.02,50.21 61.57,50.52 C60.67,51.13 59.78,51.79 58.94,52.46 L57.71,53.46 C57.07,54.01 56.48,54.56 55.92,55.09 L55.52,55.48 L55.59,55.56 C55.97,56.1 56.34,56.55 56.67,57.03 Z" id="Path" fill="#DEA36D" fill-rule="nonzero"></path>
                    <path d="M87.94,61.78 C87.5823921,61.1640066 87.1563589,60.5903713 86.67,60.07 C86.1603647,59.6122458 85.5960836,59.2192643 84.99,58.9 C84.68,58.75 84.37,58.61 84.05,58.49 C83.4041499,58.259101 82.7325066,58.1079812 82.05,58.04 C81.3057378,57.9552566 80.5542622,57.9552566 79.81,58.04 C79.42,58.09 79.03,58.15 78.63,58.24 C78.2043622,58.3230911 77.7837052,58.4299246 77.37,58.56 C76.2698423,58.9088276 75.2051095,59.3608368 74.19,59.91 C73.72,60.17 73.29,60.42 72.91,60.67 C72.53,60.92 72.17,61.16 71.91,61.37 L70.85,62.16 L70.74,62.25 L70.49,62.43 C71.1587855,63.3099345 71.7007399,64.2793933 72.1,65.31 C72.23,65.65 72.35,65.99 72.46,66.31 C72.69,66.31 72.89,66.31 73.04,66.26 L73.13,66.26 C73.5494568,66.2297899 73.9705432,66.2297899 74.39,66.26 L74.74,66.26 L75.14,66.35 C75.7559338,66.502394 76.3411104,66.7594659 76.87,67.11 C77.3120348,67.4088484 77.7122306,67.7653254 78.06,68.17 C78.5928285,68.7705591 78.9946994,69.475536 79.24,70.24 C79.4390639,70.8868379 79.5170365,71.5648606 79.47,72.24 C79.4263108,72.9293254 79.2639254,73.6059312 78.99,74.24 C78.7146437,74.8744951 78.3361994,75.4590565 77.87,75.97 C77.1306077,76.7955642 76.1632555,77.3836308 75.09,77.66 L74.9,77.71 C74.7316709,77.7464039 74.5613908,77.7731145 74.39,77.79 C73.9611774,77.8350015 73.5288226,77.8350015 73.1,77.79 C72.96,77.79 72.82,77.79 72.68,77.74 C72.1006705,77.623714 71.5344928,77.4495055 70.99,77.22 L70.71,77.09 C70.52,77.36 70.32,77.63 70.12,77.88 C69.4862933,78.6377918 68.7568605,79.3100801 67.95,79.88 L68.12,80.1 L68.86,80.88 L69.06,81.09 C69.21,81.24 69.38,81.41 69.58,81.59 C71.2217124,83.2425163 73.3689244,84.2985222 75.68,84.59 C76.5417611,84.6390527 77.4062026,84.5717809 78.25,84.39 C78.5270315,84.3353282 78.8007916,84.2652189 79.07,84.18 C82.35,83.18 85.07,80.34 87.22,75.78 C87.4,75.31 87.6,74.78 87.8,74.23 L88.07,73.47 C89.21,70.1 90.13,65.55 87.94,61.78 Z" id="Path" fill="#ED40A9" fill-rule="nonzero"></path>
                    <path d="M72.8,71.55 C72.74,71.97 72.66,72.39 72.56,72.81 C72.4511378,73.2231236 72.3209636,73.6303351 72.17,74.03 C72.09,74.28 72.01,74.53 71.92,74.77 L71.99,74.77 C72.3769377,74.9347228 72.7787758,75.0619715 73.19,75.15 C73.4953231,75.1905973 73.8046769,75.1905973 74.11,75.15 L74.11,75.15 L74.33,75.15 L74.43,75.15 C75.0144016,74.9919371 75.5373084,74.6607628 75.93,74.2 C76.0998833,74.0085216 76.2506029,73.8008635 76.38,73.58 C76.4479913,73.4641648 76.5081266,73.3438942 76.56,73.22 C76.7108655,72.8820613 76.7989677,72.5194869 76.82,72.15 C76.8504916,71.796189 76.8131566,71.4398098 76.71,71.1 C76.6231533,70.830474 76.4985837,70.5746014 76.34,70.34 C76.2060909,70.1443184 76.0519036,69.9633159 75.88,69.8 C75.7446138,69.6540379 75.5937229,69.5232658 75.43,69.41 C75.1172966,69.1679177 74.749826,69.0065054 74.36,68.94 C74.2335393,68.9297857 74.1064607,68.9297857 73.98,68.94 L73.27,68.94 L73.13,68.94 L72.9,68.94 C72.9635181,69.8110171 72.9299786,70.6863966 72.8,71.55 L72.8,71.55 Z" id="Path" fill="#ED40A9" fill-rule="nonzero"></path>
                    <path d="M31.86,75.48 C32.5793887,77.5026224 33.998065,79.2014873 35.86,80.27 L36.36,80.52 C36.6852219,80.6642374 37.0192184,80.7878161 37.36,80.89 L37.84,81.03 C39.0471223,81.2806851 40.2928777,81.2806851 41.5,81.03 C41.9418596,80.9458425 42.3791028,80.839035 42.81,80.71 C44.5314436,80.1449769 46.1542665,79.3150092 47.62,78.25 C48.17,77.86 48.67,77.47 49.11,77.1 C49.34,76.92 49.55,76.73 49.74,76.56 L49.74,76.56 L50.41,76 L50.87,75.61 C50.69,75.24 50.52,74.86 50.37,74.48 C50.22,74.1 50.1,73.71 49.99,73.32 L49.9,73.32 C49.43,73.32 48.9,73.32 48.58,73.32 L48.45,73.32 L48.07,73.26 L47.57,73.18 L47.07,73.08 L46.61,72.93 C46.2355811,72.7958639 45.8768162,72.6215109 45.54,72.41 C44.2752744,71.5501395 43.3269453,70.29975 42.84,68.85 L42.84,68.77 C42.5656156,67.8877635 42.4704159,66.9595666 42.56,66.04 C42.7325627,64.5120775 43.4411996,63.0948037 44.56,62.04 C44.9508425,61.650568 45.391301,61.3143401 45.87,61.04 C46.2624622,60.8251313 46.6742786,60.647682 47.1,60.51 L47.13,60.51 C47.32,60.45 47.5,60.4 47.69,60.36 C48.244972,60.241322 48.813827,60.20093 49.38,60.24 C50.0171107,60.2737403 50.6433197,60.4192916 51.23,60.67 C51.586255,60.820797 51.9222064,61.0156488 52.23,61.25 L53.03,61.8 C53.7763735,61.0752825 54.6133103,60.4501008 55.52,59.94 C54.6332512,58.5527122 53.6116236,57.2564175 52.47,56.07 L52.41,56.01 L51.84,55.38 C50.4062719,53.9898793 48.8233342,52.7624319 47.12,51.72 C46.74,51.49 46.37,51.29 45.99,51.1 C44.9477199,50.5654123 43.8375319,50.1751644 42.69,49.94 C42.3935,49.873093 42.0928136,49.8263195 41.79,49.8 C41.3177262,49.7552102 40.8422738,49.7552102 40.37,49.8 C39.8784213,49.8600773 39.3931706,49.9638205 38.92,50.11 C38.5788117,50.2069452 38.2446909,50.3272287 37.92,50.47 C37.32882,50.7360414 36.7715383,51.0717533 36.26,51.47 C36.0115704,51.6699107 35.7745326,51.8835786 35.55,52.11 C35.4,52.27 35.24,52.42 35.1,52.58 C34.96,52.74 34.87,52.93 34.76,53.1 C34.42,53.61 34.1,54.1 33.76,54.65 C33.42,55.2 33.11,55.91 32.82,56.56 C32.61,57.03 32.42,57.51 32.24,57.99 C31.96,58.77 31.71,59.56 31.5,60.37 C30.9758972,62.488149 30.6907851,64.6583549 30.65,66.84 C30.6215792,68.7428126 30.7385864,70.6450155 31,72.53 C31.1182525,73.206 31.2785639,73.8739641 31.48,74.53 C31.65,74.91 31.75,75.2 31.86,75.48 Z" id="Path" fill="#ED40A9" fill-rule="nonzero"></path>
                    <path d="M50.02,66.75 C50.1715599,66.245949 50.3621358,65.7544637 50.59,65.28 C50.7,65.04 50.82,64.81 50.95,64.57 C51.08,64.33 51.22,64.11 51.36,63.88 L50.68,63.4 C50.5808853,63.338862 50.4772513,63.2853735 50.37,63.24 C50.0623011,63.0619373 49.7224664,62.9463936 49.37,62.9 C48.8511378,62.8410083 48.325653,62.8956041 47.83,63.06 C47.273751,63.2230437 46.7634447,63.5141581 46.34,63.91 C45.5281056,64.6596435 45.0827499,65.725577 45.12,66.83 C45.1221955,67.014362 45.1389139,67.1982644 45.17,67.38 C45.2038271,67.5654509 45.2472184,67.7490292 45.3,67.93 C45.6032444,68.9130726 46.2583744,69.7497876 47.14,70.28 L47.28,70.35 C47.5092987,70.4546303 47.751381,70.5285999 48,70.57 L48.12,70.57 L48.58,70.64 L49.58,70.64 C49.5238311,69.6346985 49.5977764,68.6263527 49.8,67.64 C49.84,67.39 49.92,67.07 50.02,66.75 Z" id="Path" fill="#ED40A9" fill-rule="nonzero"></path>
                    <path d="M53.72,65.07 C53.56,65.31 53.41,65.56 53.27,65.82 L53.27,65.82 L53.27,65.82 C52.8137818,66.6164721 52.4991212,67.4860181 52.34,68.39 C52.3,68.6233333 52.27,68.8533333 52.25,69.08 C52.1700571,69.7844057 52.1700571,70.4955943 52.25,71.2 C52.3129738,71.676305 52.409887,72.1475038 52.54,72.61 C52.6704154,73.0842883 52.8341559,73.5487765 53.03,74 C53.2321164,74.4540222 53.4625707,74.8948914 53.72,75.32 C53.9836358,75.7560688 54.2812235,76.1706854 54.61,76.56 C55.8756899,77.7834459 57.4254036,78.6734145 59.12,79.15 C59.34,79.21 59.57,79.26 59.8,79.3 C60.4989664,79.4291195 61.2126052,79.4594154 61.92,79.39 C62.2580181,79.3493832 62.5923615,79.2825146 62.92,79.19 L63.01,79.19 C63.29,79.13 63.57,79.06 63.86,78.97 C65.5876821,78.4639192 67.1172115,77.4372488 68.24,76.03 C68.6646639,75.4803909 69.0175096,74.8788729 69.29,74.24 C69.4242551,73.9130855 69.5410857,73.5792838 69.64,73.24 L69.64,73.12 C69.7978552,72.7314709 69.921654,72.3299611 70.01,71.92 C70.2007709,71.0538219 70.2614368,70.1640559 70.19,69.28 C70.137958,68.4532257 69.9800005,67.6365519 69.72,66.85 C69.3217368,65.6043268 68.6716102,64.453841 67.81,63.47 C67.2204223,62.9018896 66.5455968,62.4295117 65.81,62.07 L65.55,61.95 C64.6969825,61.5590306 63.7957438,61.2832784 62.87,61.13 C62.65,61.13 62.44,61.07 62.25,61.05 C61.644818,60.9899764 61.035182,60.9899764 60.43,61.05 C60.13,61.05 59.83,61.13 59.53,61.19 C59.23,61.25 58.94,61.33 58.65,61.42 C56.6574941,62.0219863 54.9248751,63.27567 53.73,64.98 L53.72,65.07 Z" id="Path" fill="#ED40A9" fill-rule="nonzero"></path>
                    <path d="M26.9,134.94 C27.49,135.07 28.09,135.19 28.67,135.29 C29.25,135.39 29.84,135.47 30.41,135.54 C29.84,135.47 29.26,135.39 28.67,135.29 C28.08,135.19 27.49,135.07 26.9,134.94 Z" id="Path"></path>
                    <path d="M21.25,129.72 C21.1332454,130.204459 20.8456414,130.630539 20.44,130.92 L19.12,132.02 L20.44,130.92 C20.8456414,130.630539 21.1332454,130.204459 21.25,129.72 Z" id="Path"></path>
                    <path d="M20.96,128.81 C21.2046361,129.044587 21.3137957,129.387122 21.25,129.72 C21.3137957,129.387122 21.2046361,129.044587 20.96,128.81 L20.96,128.81 Z" id="Path"></path>
                    <path d="M11.4,125.49 C11.62,125.75 11.85,125.99 12.07,126.23 C12.29,126.47 12.63,126.83 12.91,127.12 C12.63,126.83 12.35,126.54 12.07,126.23 C11.79,125.92 11.62,125.75 11.4,125.49 Z" id="Path"></path>
                    <polygon id="Path" points="28.09 68.16 27.81 68.29 27.45 68.46 27.81 68.29"></polygon>
                    <polygon id="Path" points="74.25 125.45 74.25 125.45 74.9 125.09"></polygon>
                    <polygon id="Path" points="74.9 125.1 75.8 124.59 74.9 125.09"></polygon>
                    <path d="M93.36,94.39 C92.52,94.59 91.73,94.81 91.01,95.03 C91.73,94.81 92.52,94.55 93.36,94.39 Z" id="Path"></path>
                    <polygon id="Path" points="47.26 134.55 47.26 134.55 46.13 134.75"></polygon>
                    <path d="M73.57,105.55 C74.5160102,105.602397 75.4373211,105.236798 76.09,104.55 C77.49,102.94 77.18,100.67 76.61,98.82 C76.11,97.33 74.81,95.76 73.14,95.66 C71.6875612,95.5732092 70.322972,96.3597159 69.67,97.66 C69.0622626,99.539055 69.2765399,101.5874 70.26,103.3 C70.835455,104.626931 72.1244216,105.503117 73.57,105.55 L73.57,105.55 Z" id="Path"></path>
                    <path d="M11.96,125.2 L13.25,124.5 L11.96,125.2 Z" id="Path"></path>
                    <path d="M4.13,109.46 C4.2,109.87 4.28,110.28 4.36,110.7 C4.48,111.33 4.63,111.98 4.8,112.63 C4.63,111.98 4.48,111.33 4.36,110.7 C4.28,110.28 4.2,109.87 4.13,109.46 Z" id="Path"></path>
                    <path d="M69.3,74.25 C69.4342551,73.9230855 69.5510857,73.5892838 69.65,73.25 L69.65,73.13 C69.8078552,72.7414709 69.931654,72.3399611 70.02,71.93 C70.2107709,71.0638219 70.2714368,70.1740559 70.2,69.29 C70.1431469,68.463847 69.9853047,67.6477694 69.73,66.86 C69.3317368,65.6143268 68.6816102,64.463841 67.82,63.48 C67.2323537,62.909548 66.5571359,62.4368955 65.82,62.08 L65.56,61.96 C64.7069825,61.5690306 63.8057438,61.2932784 62.88,61.14 C62.66,61.14 62.45,61.08 62.26,61.06 C61.654818,60.9999764 61.045182,60.9999764 60.44,61.06 C60.14,61.06 59.84,61.14 59.54,61.2 C59.24,61.26 58.95,61.34 58.66,61.43 C56.6674941,62.0319863 54.9348751,63.28567 53.74,64.99 L53.68,65.08 C53.52,65.32 53.37,65.57 53.23,65.83 L53.23,65.83 L53.23,65.83 C52.7737818,66.6264721 52.4591212,67.4960181 52.3,68.4 C52.26,68.6333333 52.23,68.8633333 52.21,69.09 C52.1300571,69.7944057 52.1300571,70.5055943 52.21,71.21 C52.2729738,71.686305 52.369887,72.1575038 52.5,72.62 C52.6304154,73.0942883 52.7941559,73.5587765 52.99,74.01 C53.1921164,74.4640222 53.4225707,74.9048914 53.68,75.33 C53.9436358,75.7660688 54.2412235,76.1806854 54.57,76.57 C55.8356899,77.7934459 57.3854036,78.6834145 59.08,79.16 C59.3,79.22 59.53,79.27 59.76,79.31 C60.4589664,79.4391195 61.1726052,79.4694154 61.88,79.4 C62.2180181,79.3593832 62.5523615,79.2925146 62.88,79.2 L62.97,79.2 C63.25,79.14 63.53,79.07 63.82,78.98 C65.5476821,78.4739192 67.0772115,77.4472488 68.2,76.04 C68.6421769,75.493162 69.0118998,74.891522 69.3,74.25 L69.3,74.25 Z" id="Path"></path>
                    <path d="M54.01,118.08 L54.01,118.08 L54.47,117.94 C57.54,116.87 58.02,114.76 57.47,113.13 C56.92,111.5 54.73,110.43 52.12,111.2 L51.82,111.3 C50.4677989,111.667627 49.3212016,112.565434 48.64,113.79 C48.2828414,114.507979 48.2217966,115.33747 48.47,116.1 C49.19,118.19 51.21,118.91 54.01,118.08 Z" id="Path"></path>
                    <path d="M53.01,61.82 C53.7563735,61.0952825 54.5933103,60.4701008 55.5,59.96 C54.6132512,58.5727122 53.5916236,57.2764175 52.45,56.09 L52.39,56.03 L51.82,55.4 C50.3862719,54.0098793 48.8033342,52.7824319 47.1,51.74 C46.72,51.51 46.35,51.31 45.97,51.12 C44.9277199,50.5854123 43.8175319,50.1951644 42.67,49.96 C42.3735,49.893093 42.0728136,49.8463195 41.77,49.82 C41.2977262,49.7752102 40.8222738,49.7752102 40.35,49.82 C39.8584213,49.8800773 39.3731706,49.9838205 38.9,50.13 C38.5588117,50.2269452 38.2246909,50.3472287 37.9,50.49 C37.30882,50.7560414 36.7515383,51.0917533 36.24,51.49 C35.9915704,51.6899107 35.7545326,51.9035786 35.53,52.13 C35.38,52.29 35.22,52.44 35.08,52.6 C34.94,52.76 34.85,52.95 34.74,53.12 C34.4,53.63 34.08,54.12 33.74,54.67 C33.4,55.22 33.09,55.93 32.8,56.58 C32.59,57.05 32.4,57.53 32.22,58.01 C31.94,58.79 31.69,59.58 31.48,60.39 C30.9558972,62.508149 30.6707851,64.6783549 30.63,66.86 C30.6015792,68.7628126 30.7185864,70.6650155 30.98,72.55 C31.0982525,73.226 31.2585639,73.8939641 31.46,74.55 C31.56,74.86 31.67,75.15 31.77,75.43 C32.4893887,77.4526224 33.908065,79.1514873 35.77,80.22 L36.27,80.47 C36.5952219,80.6142374 36.9292184,80.7378161 37.27,80.84 L37.75,80.98 C38.9571223,81.2306851 40.2028777,81.2306851 41.41,80.98 C41.8518596,80.8958425 42.2891028,80.789035 42.72,80.66 C44.4414436,80.0949769 46.0642665,79.2650092 47.53,78.2 C48.08,77.81 48.58,77.42 49.02,77.05 C49.25,76.87 49.46,76.68 49.65,76.51 L49.65,76.51 L50.32,75.95 L50.78,75.56 C50.6,75.19 50.43,74.81 50.28,74.43 C50.13,74.05 50.01,73.66 49.9,73.27 L49.81,73.27 C49.34,73.27 48.81,73.27 48.49,73.27 L48.36,73.27 L47.98,73.21 L47.48,73.13 L46.98,73.03 L46.52,72.88 C46.1455811,72.7458639 45.7868162,72.5715109 45.45,72.36 C44.1852744,71.5001395 43.2369453,70.24975 42.75,68.8 L42.75,68.72 C42.4756156,67.8377635 42.3804159,66.9095666 42.47,65.99 C42.6425627,64.4620775 43.3511996,63.0448037 44.47,61.99 C44.8608425,61.600568 45.301301,61.2643401 45.78,60.99 C46.1724622,60.7751313 46.5842786,60.597682 47.01,60.46 L47.13,60.46 C47.32,60.4 47.5,60.35 47.69,60.31 C48.244972,60.191322 48.813827,60.15093 49.38,60.19 C50.0171107,60.2237403 50.6433197,60.3692916 51.23,60.62 C51.586255,60.770797 51.9222064,60.9656488 52.23,61.2 L53.01,61.82 Z" id="Path"></path>
                    <path d="M50.37,63.24 C50.0623011,63.0619373 49.7224664,62.9463936 49.37,62.9 C48.8511378,62.8410083 48.325653,62.8956041 47.83,63.06 C47.273751,63.2230437 46.7634447,63.5141581 46.34,63.91 C45.5281056,64.6596435 45.0827499,65.725577 45.12,66.83 C45.1221955,67.014362 45.1389139,67.1982644 45.17,67.38 C45.2038271,67.5654509 45.2472184,67.7490292 45.3,67.93 C45.6032444,68.9130726 46.2583744,69.7497876 47.14,70.28 L47.28,70.35 C47.5092987,70.4546303 47.751381,70.5285999 48,70.57 L48.12,70.57 L48.58,70.64 L49.58,70.64 C49.5238311,69.6346985 49.5977764,68.6263527 49.8,67.64 C49.87,67.32 49.95,67 50.05,66.64 C50.2015599,66.135949 50.3921358,65.6444637 50.62,65.17 C50.73,64.93 50.85,64.7 50.98,64.46 C51.11,64.22 51.25,64 51.39,63.77 L50.71,63.29 C50.598079,63.264841 50.4844257,63.2481273 50.37,63.24 L50.37,63.24 Z" id="Path"></path>
                    <path d="M72.56,72.8 C72.4511378,73.2131236 72.3209636,73.6203351 72.17,74.02 C72.09,74.27 72.01,74.52 71.92,74.76 L71.99,74.76 C72.3769377,74.9247228 72.7787758,75.0519715 73.19,75.14 C73.4953231,75.1805973 73.8046769,75.1805973 74.11,75.14 L74.11,75.14 L74.33,75.14 L74.43,75.14 C75.0144016,74.9819371 75.5373084,74.6507628 75.93,74.19 C76.0998833,73.9985216 76.2506029,73.7908635 76.38,73.57 C76.4479913,73.4541648 76.5081266,73.3338942 76.56,73.21 C76.7108655,72.8720613 76.7989677,72.5094869 76.82,72.14 C76.8504916,71.786189 76.8131566,71.4298098 76.71,71.09 C76.6231533,70.820474 76.4985837,70.5646014 76.34,70.33 C76.2060909,70.1343184 76.0519036,69.9533159 75.88,69.79 C75.7446138,69.6440379 75.5937229,69.5132658 75.43,69.4 C75.1172966,69.1579177 74.749826,68.9965054 74.36,68.93 C74.2335393,68.9197857 74.1064607,68.9197857 73.98,68.93 L73.27,68.93 L73.13,68.93 L72.9,68.93 C72.9719691,69.793281 72.9484939,70.6618667 72.83,71.52 C72.75,71.9533333 72.66,72.38 72.56,72.8 Z" id="Path"></path>
                    <path d="M95.13,89.48 C95.4556676,90.9154484 95.7027021,92.3676106 95.87,93.83 C96.0071632,94.7502436 96.0740234,95.6795991 96.07,96.61 C96.1527045,99.2125643 95.8938318,101.81474 95.3,104.35 C95.0870311,105.329448 94.8131659,106.294656 94.48,107.24 C94.22,108 93.95,108.72 93.67,109.4 C91.27,115.76 86.26,121.31 78.77,125.86 C77.77,126.49 76.66,127.09 75.54,127.69 L75.54,127.69 L74.81,128.07 L74.81,128.07 C72.88,129.07 70.96,130 69.07,130.82 C59.36,135.82 42.75,137.89 42.75,137.89 C38.35,138.54 29.49,139.33 20.36,135.64 L20.29,135.64 C19.1653133,135.105291 18.0733894,134.504232 17.02,133.84 C16.8002056,133.726531 16.5895703,133.596138 16.39,133.45 L16.39,133.45 C16.61,133.71 16.83,133.94 17.05,134.18 C18.0884106,135.335354 19.2115241,136.411671 20.41,137.4 C20.66,137.6 20.9,137.78 21.15,137.96 L21.15,137.96 L21.36,138.11 L21.75,138.41 L21.75,138.41 C22.32,138.8 23.22,139.41 24.11,139.97 L24.11,139.97 C24.24,140.04 24.36,140.1 24.48,140.18 C25.0962918,140.557002 25.7378087,140.891125 26.4,141.18 C28.7454862,142.102788 31.1825547,142.773233 33.67,143.18 C34.84,143.38 35.98,143.52 37.08,143.61 C39.5224619,143.812857 41.9775381,143.812857 44.42,143.61 C45.66,143.51 46.74,143.36 47.62,143.23 L49.1,142.99 L51.1,142.67 L52.23,142.47 L52.23,142.47 L53.01,142.33 L53.01,142.33 L53.2,142.33 L53.42,142.33 L53.71,142.28 L54.64,142.09 L54.72,142.09 C55.72,141.88 67.83,139.46 71.06,137.29 C72.88,136.59 74.71,135.8 76.48,134.93 C77.07,134.64 77.66,134.34 78.23,134.04 C78.57,133.86 78.9,133.68 79.23,133.49 L79.23,133.49 C79.44,133.37 79.65,133.25 79.87,133.14 L79.87,133.14 C80.18,132.98 80.48,132.81 80.78,132.64 C81.34,132.32 81.89,132 82.43,131.64 C84.2991509,130.51576 86.0808685,129.252178 87.76,127.86 C90.2535564,125.824514 92.4101061,123.408098 94.15,120.7 C94.31,120.44 94.44,120.18 94.59,119.92 C95.0399526,119.153043 95.4472385,118.36184 95.81,117.55 C96.5507199,115.940585 97.1431718,114.266992 97.58,112.55 L97.58,112.55 C97.72,112.02 97.85,111.47 97.96,110.9 C98.3396534,109.038006 98.5140284,107.140001 98.48,105.24 L98.48,105.24 C98.4438736,99.8138211 97.3040882,94.4517263 95.13,89.48 L95.13,89.48 Z" id="Path"></path>
                    <path d="M56.67,57.03 C57.22,57.79 57.67,58.47 57.95,58.9 C58.3212718,58.7834134 58.6984688,58.6866106 59.08,58.61 C59.9394874,58.4425201 60.8146048,58.3687554 61.69,58.39 L62.53,58.39 C63.2497702,58.453956 63.962518,58.5811129 64.66,58.77 C65.3037137,58.9464343 65.932365,59.1738188 66.54,59.45 C67.228322,59.7441487 67.8822448,60.1130283 68.49,60.55 C68.72,60.38 68.96,60.22 69.18,60.05 L70.27,59.24 C70.61,58.99 71,58.72 71.44,58.44 C71.88,58.16 72.35,57.88 72.88,57.59 C73.14,57.45 73.41,57.31 73.69,57.18 C74.5809406,56.7414853 75.5035308,56.3704436 76.45,56.07 L76.16,55.33 L75.86,54.6 L75.33,53.6 C75.15,53.27 74.96,52.95 74.78,52.6 C74.087055,51.3948189 73.2655967,50.2682475 72.33,49.24 C72.0752307,48.9646335 71.804781,48.7042005 71.52,48.46 L71.37,48.33 L70.99,48.05 C70.7508771,47.8855342 70.5002299,47.7384879 70.24,47.61 C69.7159553,47.3320097 69.117377,47.226996 68.53,47.31 C67.5618434,47.4912358 66.6185918,47.7866313 65.72,48.19 C64.7625815,48.6119364 63.8339153,49.0963127 62.94,49.64 C62.48,49.92 62.03,50.21 61.57,50.52 C60.67,51.13 59.78,51.79 58.94,52.46 L57.71,53.46 C57.07,54.01 56.48,54.56 55.92,55.09 L55.52,55.48 L55.59,55.56 C55.97,56.1 56.34,56.55 56.67,57.03 Z" id="Path"></path>
                    <path d="M86.67,60.07 C86.1603647,59.6122458 85.5960836,59.2192643 84.99,58.9 C84.68,58.75 84.37,58.61 84.05,58.49 C83.4038747,58.2600509 82.7323484,58.1089575 82.05,58.04 C81.3057378,57.9552566 80.5542622,57.9552566 79.81,58.04 C79.42,58.09 79.03,58.15 78.63,58.24 C78.207385,58.3219124 77.7899886,58.4287659 77.38,58.56 C76.2759533,58.9069831 75.2077296,59.3590528 74.19,59.91 C73.72,60.17 73.29,60.42 72.91,60.67 C72.53,60.92 72.17,61.16 71.91,61.37 L70.85,62.16 L70.74,62.25 L70.49,62.43 C71.1587855,63.3099345 71.7007399,64.2793933 72.1,65.31 C72.23,65.65 72.35,65.99 72.46,66.31 C72.69,66.31 72.89,66.31 73.04,66.26 L73.13,66.26 C73.5494568,66.2297899 73.9705432,66.2297899 74.39,66.26 L74.74,66.26 L75.14,66.35 C75.7559338,66.502394 76.3411104,66.7594659 76.87,67.11 C77.3120348,67.4088484 77.7122306,67.7653254 78.06,68.17 C78.5928285,68.7705591 78.9946994,69.475536 79.24,70.24 C79.4390639,70.8868379 79.5170365,71.5648606 79.47,72.24 C79.4315039,72.9300972 79.2689031,73.6076005 78.99,74.24 C78.7146437,74.8744951 78.3361994,75.4590565 77.87,75.97 C77.1306077,76.7955642 76.1632555,77.3836308 75.09,77.66 L74.9,77.71 C74.7316709,77.7464039 74.5613908,77.7731145 74.39,77.79 C73.9611774,77.8350015 73.5288226,77.8350015 73.1,77.79 C72.96,77.79 72.82,77.79 72.68,77.74 C72.1006705,77.623714 71.5344928,77.4495055 70.99,77.22 L70.71,77.09 C70.52,77.36 70.33,77.63 70.12,77.88 C69.4862933,78.6377918 68.7568605,79.3100801 67.95,79.88 L68.12,80.1 L68.86,80.88 L69.06,81.09 C69.21,81.24 69.38,81.41 69.58,81.59 C71.2217124,83.2425163 73.3689244,84.2985222 75.68,84.59 C76.5417611,84.6390527 77.4062026,84.5717809 78.25,84.39 C78.5270315,84.3353282 78.8007916,84.2652189 79.07,84.18 C82.35,83.18 85.07,80.34 87.22,75.78 C87.4,75.31 87.6,74.78 87.8,74.23 L88.07,73.47 C89.2,70.1 90.16,65.59 87.93,61.78 C87.5755264,61.1645061 87.1528628,60.5908913 86.67,60.07 Z" id="Path"></path>
                    <path d="M27.6,119.47 C28.5241564,119.681979 29.4947339,119.473213 30.25,118.9 C31.4284017,118.042464 32.005117,116.581192 31.73,115.15 C31.5872537,113.183041 30.6214119,111.367549 29.07,110.15 C27.7949147,109.442894 26.2209127,109.564879 25.07,110.46 C23.74,111.46 23.53,113.51 23.94,115.02 C24.53,116.86 25.55,118.92 27.6,119.47 Z" id="Path"></path>
                    <path d="M100.9,101.79 C100.623877,99.4209629 100.148867,97.0793663 99.48,94.79 C99.17,93.58 98.48,91.79 98.48,91.79 L98.37,91.47 C97.5108083,89.3209051 96.4493723,87.2583039 95.2,85.31 C94.51,84.26 93.42,82.73 93.03,82.64 C93.03,82.64 93.03,82.64 93.03,82.57 C92.89,82.25 92.76,81.94 92.61,81.57 L92.37,81.08 C91.6325236,79.5829021 90.8077707,78.1304021 89.9,76.73 L89.75,76.52 C91.3,72.45 94.25,64.33 88.55,58.23 L88.47,58.16 C85.9142564,55.9173435 82.4781108,54.9571358 79.13,55.55 L78.51,54.16 C77.2463168,51.2107935 75.3678186,48.5652134 73,46.4 C71.6765506,45.1622178 69.8645895,44.5888589 68.07,44.84 C66.9027447,45.0558931 65.7649299,45.4083136 64.68,45.89 C60.6266165,47.8477975 56.9343388,50.4783763 53.76,53.67 L53.76,53.67 L53.69,53.61 C53.41,53.34 53.13,53.09 52.86,52.84 C49.52,49.84 46.36,48.08 43.25,47.47 C41.5559778,47.1081455 39.7963459,47.2013025 38.15,47.74 C36.1616893,48.332477 34.3960259,49.5061034 33.08,51.11 L33.08,51.17 C30.1559604,55.3096009 28.441985,60.181446 28.13,65.24 L27.43,65.58 C24.548903,66.8446113 21.7559563,68.3012198 19.07,69.94 L18.41,70.37 C18.33,70.37 20.28,72.27 20.49,72.13 C21.24,71.64 22.24,71.07 23.42,70.45 L24.34,69.97 C25.28,69.49 26.34,68.97 27.42,68.46 L27.78,68.29 L28.06,68.15 C28.06,68.93 28.06,69.73 28.17,70.53 C28.28,71.33 28.32,72.15 28.43,72.97 L28.43,73.03 C28.6052016,74.0501492 28.8661263,75.0537055 29.21,76.03 C29.6253519,77.1965818 30.1936435,78.3029008 30.9,79.32 C31.1853731,79.7226113 31.4959967,80.1067158 31.83,80.47 C32.79884,81.5327415 33.9767924,82.3838632 35.29,82.97 C35.8865539,83.2401458 36.5055755,83.4576398 37.14,83.62 C37.9576168,83.8008599 38.7926198,83.8914023 39.63,83.89 C40.5044985,83.8858097 41.3760698,83.788596 42.23,83.6 C42.65,83.51 43.08,83.4 43.51,83.27 C43.94,83.14 44.34,82.99 44.73,82.84 C45.882741,82.3711964 46.9906084,81.7988541 48.04,81.13 C48.61,80.77 49.13,80.4 49.61,80.04 C50.28,79.54 50.89,79.04 51.4,78.59 L52.23,77.89 L52.61,78.38 L52.71,78.48 C53.2562327,79.0073985 53.8448801,79.4890191 54.47,79.92 C55.0780344,80.339838 55.7202973,80.7078011 56.39,81.02 C58.4500032,82.0342571 60.7832452,82.3535428 63.04,81.93 L63.22,81.93 L63.57,81.84 C63.92,81.76 64.26,81.67 64.57,81.57 L65.51,81.23 L66.06,81.88 L66.87,82.75 L67.11,83.01 C67.8524122,83.7468399 68.6589268,84.4161466 69.52,85.01 L70.05,85.37 C70.42,85.6 70.81,85.83 71.23,86.04 C71.43,86.15 71.65,86.25 71.86,86.35 C72.9953702,86.8560618 74.2101721,87.1606082 75.45,87.25 C76.1404311,87.2902917 76.8330619,87.2702154 77.52,87.19 C77.9260978,87.1503388 78.3299421,87.0902628 78.73,87.01 C79.08,86.93 79.44,86.84 79.78,86.73 C80.2023108,86.6020482 80.6164147,86.448429 81.02,86.27 C81.8458413,85.9126721 82.6304399,85.466725 83.36,84.94 C85.390056,83.4228434 87.0768539,81.4941008 88.31,79.28 L88.48,79.56 C88.6,79.75 88.71,79.95 88.82,80.15 L89.16,80.74 C89.49,81.33 89.81,81.94 90.1,82.56 C90.39,83.18 90.67,83.8 90.91,84.43 L91.06,84.86 C90.58,85.09 90.06,85.32 89.61,85.58 C88.52,86.15 87.41,86.79 86.26,87.53 C85.87,87.78 85.48,88.03 85.09,88.3 C84.9589988,88.3827431 84.835225,88.4764098 84.72,88.58 C84.6193236,88.6656895 84.5256895,88.7593236 84.44,88.86 C84.3699067,88.9485629 84.306403,89.0421473 84.25,89.14 C84.1946614,89.22371 84.1509296,89.3145375 84.12,89.41 C84.0295136,89.6518122 84.0295136,89.9181878 84.12,90.16 C84.1527211,90.2319969 84.1894452,90.3021065 84.23,90.37 L84.4,90.54 C84.4601296,90.5981693 84.5273212,90.648563 84.6,90.69 C84.7180215,90.7522158 84.8419723,90.8024662 84.97,90.84 C85.1111021,90.8721754 85.2552798,90.8889403 85.4,90.89 C85.4997585,90.8998276 85.6002415,90.8998276 85.7,90.89 C85.9246025,90.8493202 86.1408825,90.7715946 86.34,90.66 L87.77,89.91 C88.77,89.42 89.68,88.91 90.6,88.53 L91.98,87.91 C92.14,88.5 92.29,89.09 92.43,89.66 C92.53,90.08 92.62,90.5 92.71,90.92 C92.9494042,92.0901704 93.1296332,93.2716714 93.25,94.46 C92.41,94.66 91.62,94.88 90.9,95.1 L90.21,95.32 C89.91,95.42 89.63,95.51 89.37,95.61 C89.1824645,95.6800569 89.0017147,95.7670846 88.83,95.87 C88.6371891,95.9724828 88.4589437,96.1002813 88.3,96.25 L88.17,96.38 C88.0909731,96.4733677 88.0206785,96.5737885 87.96,96.68 C87.840529,96.8852285 87.7979913,97.1262751 87.84,97.36 C87.8626678,97.4974045 87.9101043,97.6295491 87.98,97.75 C88.0220496,97.8306664 88.0798572,97.9020757 88.15,97.96 C88.2790565,98.0629103 88.4355726,98.1255168 88.6,98.14 C89.091095,98.1774887 89.5849781,98.1301301 90.06,98 L91.06,97.78 L91.51,97.68 L92.05,97.56 L92.69,97.41 L93.41,97.25 C93.4382705,99.1530942 93.2639559,101.053794 92.89,102.92 C92.78,103.49 92.65,104.03 92.51,104.57 C92.01,104.57 91.51,104.67 90.97,104.74 L90.15,104.86 L89.29,105 L88.99,105.07 L88.73,105.18 L88.62,105.25 L88.51,105.33 C88.3830787,105.426392 88.2746627,105.544972 88.19,105.68 L88.1,105.88 C88.0541448,106.050301 88.0541448,106.229699 88.1,106.4 C88.1744075,106.687581 88.3619612,106.932843 88.62,107.08 C89.0034029,107.283941 89.4370751,107.374145 89.87,107.34 L91.06,107.34 L91.66,107.34 C91.51,107.75 91.35,108.16 91.19,108.55 L90.97,109.09 C90.89,109.27 90.83,109.46 90.75,109.63 C90.389357,110.446095 89.982016,111.240744 89.53,112.01 C89.38,112.27 89.24,112.53 89.08,112.78 C88.68,113.42 88.25,114.05 87.78,114.67 C86.8132011,115.94597 85.7465086,117.143073 84.59,118.25 C83.99,118.83 83.36,119.39 82.7,119.95 C81.0183674,121.338915 79.2368993,122.60232 77.37,123.73 C76.83,124.06 76.28,124.38 75.71,124.73 L74.81,125.24 L74.81,125.24 L74.16,125.6 L74.16,125.6 L73.16,126.14 C72.58,126.45 72,126.75 71.41,127.04 C69.63,127.91 67.81,128.69 65.99,129.4 C62.76,131.57 50.69,133.99 49.65,134.2 L49.57,134.2 L48.64,134.39 L48.34,134.45 L48.13,134.45 L47.94,134.45 L47.94,134.45 L47.17,134.59 L47.17,134.59 L46.04,134.79 C45.37,134.91 44.69,135.02 44.04,135.12 L42.56,135.36 C41.68,135.49 40.56,135.63 39.35,135.74 C36.91086,135.942442 34.45914,135.942442 32.02,135.74 C31.47,135.74 30.91,135.64 30.34,135.57 C29.77,135.5 29.19,135.42 28.6,135.32 C28.01,135.22 27.42,135.1 26.83,134.97 C24.9549139,134.565177 23.1181391,133.999758 21.34,133.28 C20.5562208,132.90926 19.7918916,132.498725 19.05,132.05 L20.37,130.95 C20.7756414,130.660539 21.0632454,130.234459 21.18,129.75 C21.2437957,129.417122 21.1346361,129.074587 20.89,128.84 C20.7256564,128.691654 20.5196922,128.597399 20.3,128.57 L20.13,128.57 C20.0435616,128.561105 19.9564384,128.561105 19.87,128.57 L19.6,128.66 C19.5010418,128.694449 19.4069339,128.741503 19.32,128.8 L17.97,129.65 C17.55,129.92 17.15,130.2 16.77,130.47 C16.33,130.15 15.89,129.81 15.44,129.47 C14.5558333,128.74606 13.7144192,127.971425 12.92,127.15 C12.64,126.86 12.36,126.57 12.08,126.26 C11.8,125.95 11.63,125.78 11.41,125.52 L11.97,125.23 L13.26,124.53 L13.8,124.24 L14.28,123.98 C14.6422896,123.779036 14.9781975,123.533823 15.28,123.25 C15.4986598,123.058344 15.6010855,122.766242 15.55,122.48 C15.5288087,122.376354 15.4952345,122.275632 15.45,122.18 C15.3349003,121.935396 15.1256722,121.747812 14.87,121.66 C14.7562883,121.619499 14.6391436,121.589377 14.52,121.57 C14.2742416,121.540064 14.0257584,121.540064 13.78,121.57 C13.5549259,121.609545 13.3339868,121.669801 13.12,121.75 C12.63,121.94 12.12,122.16 11.51,122.42 L10.62,122.83 L9.69,123.29 C8.4159089,121.491123 7.33335914,119.563984 6.46,117.54 C8.24,117 10.16,116.48 12.14,116.04 C13.69,115.7 14.07,113.98 12.76,113.52 C12.3792393,113.39751 11.9749331,113.366673 11.58,113.43 L9.9,113.66 L8.31,113.94 C7.8,114.03 7.31,114.14 6.8,114.25 C6.29,114.36 5.8,114.48 5.36,114.61 C5.14,113.94 4.95,113.28 4.79,112.61 C4.63,111.94 4.47,111.31 4.35,110.68 C4.27,110.26 4.19,109.85 4.12,109.44 C3.63646643,106.401664 3.5189612,103.316312 3.77,100.25 C3.84,99.49 3.92,98.85 3.99,98.34 C3.99,98.34 3.99,98.28 3.99,98.25 C3.12477682,98.0855958 2.27506262,97.8480772 1.45,97.54 C0.512445308,103.50166 0.978794426,109.599819 2.81,115.35 C3.10606983,116.375822 3.47706738,117.378518 3.92,118.35 C4.84917557,120.533222 6.0019937,122.614327 7.36,124.56 C7.85302423,125.348379 8.41524255,126.091311 9.04,126.78 L9.21,126.99 L9.21,126.99 C10.0755446,128.91496 11.1166117,130.756075 12.32,132.49 C12.8131483,133.284004 13.3789067,134.030537 14.01,134.72 L14.17,134.93 C15.76763,136.837115 17.5720111,138.561004 19.55,140.07 C20.336146,140.679435 21.1539533,141.246893 22,141.77 C23.0511657,142.435168 24.13962,143.039494 25.26,143.58 L25.34,143.58 C34.46,147.27 43.34,146.49 47.72,145.84 C47.72,145.84 64.33,143.74 74.04,138.76 C75.93,137.95 77.86,137.03 79.79,136.02 L79.79,136.02 L80.51,135.63 L80.51,135.63 C81.62,135.04 82.71,134.43 83.74,133.8 C91.22,129.25 96.24,123.7 98.63,117.35 C98.91,116.66 99.18,115.95 99.44,115.18 C99.7754707,114.237931 100.052661,113.276114 100.27,112.3 C100.893733,109.765282 101.182858,107.159798 101.13,104.55 C101.120971,103.625612 101.044097,102.703133 100.9,101.79 L100.9,101.79 Z M55.9,55.16 C56.46,54.63 57.05,54.08 57.69,53.53 L58.92,52.53 C59.76,51.86 60.65,51.2 61.55,50.59 C62.01,50.28 62.46,49.99 62.92,49.71 C63.8139153,49.1663127 64.7425815,48.6819364 65.7,48.26 C66.5985918,47.8566313 67.5418434,47.5612358 68.51,47.38 C69.097377,47.296996 69.6959553,47.4020097 70.22,47.68 C70.4802299,47.8084879 70.7308771,47.9555342 70.97,48.12 L71.35,48.4 L71.5,48.53 C71.784781,48.7742005 72.0552307,49.0346335 72.31,49.31 C73.2455967,50.3382475 74.067055,51.4648189 74.76,52.67 C74.94,52.98 75.13,53.3 75.31,53.67 L75.84,54.67 L76.14,55.4 L76.43,56.14 C75.4835308,56.4404436 74.5609406,56.8114853 73.67,57.25 C73.39,57.38 73.12,57.52 72.86,57.66 C72.33,57.95 71.86,58.23 71.42,58.51 C70.98,58.79 70.59,59.06 70.25,59.31 L69.16,60.12 C68.94,60.29 68.7,60.45 68.47,60.62 C67.8622448,60.1830283 67.208322,59.8141487 66.52,59.52 C65.912365,59.2438188 65.2837137,59.0164343 64.64,58.84 C63.942518,58.6511129 63.2297702,58.523956 62.51,58.46 L61.67,58.46 C60.7946048,58.4387554 59.9194874,58.5125201 59.06,58.68 C58.6784688,58.7566106 58.3012718,58.8534134 57.93,58.97 C57.66,58.54 57.2,57.86 56.65,57.1 C56.32,56.65 55.95,56.17 55.57,55.7 L55.5,55.62 L55.9,55.16 Z M50.9,64.57 C50.77,64.81 50.65,65.04 50.54,65.28 C50.3121358,65.7544637 50.1215599,66.245949 49.97,66.75 C49.87,67.07 49.79,67.39 49.72,67.75 C49.5177764,68.7363527 49.4438311,69.7446985 49.5,70.75 L48.5,70.75 L48.13,70.55 L48.01,70.55 C47.761381,70.5085999 47.5192987,70.4346303 47.29,70.33 L47.15,70.26 C46.2683744,69.7297876 45.6132444,68.8930726 45.31,67.91 C45.2572184,67.7290292 45.2138271,67.5454509 45.18,67.36 C45.1489139,67.1782644 45.1321955,66.994362 45.13,66.81 C45.0927499,65.705577 45.5381056,64.6396435 46.35,63.89 C46.7734447,63.4941581 47.283751,63.2030437 47.84,63.04 C48.335653,62.8756041 48.8611378,62.8210083 49.38,62.88 C49.7324664,62.9263936 50.0723011,63.0419373 50.38,63.22 C50.4872513,63.2653735 50.5908853,63.318862 50.69,63.38 L51.37,63.86 C51.22,64.11 51.13,64.34 50.95,64.55 L50.9,64.57 Z M51.15,60.69 C50.5633197,60.4392916 49.9371107,60.2937403 49.3,60.26 C48.733827,60.22093 48.164972,60.261322 47.61,60.38 C47.42,60.38 47.24,60.47 47.05,60.53 L47,60.53 C46.5742786,60.667682 46.1624622,60.8451313 45.77,61.06 C45.291301,61.3343401 44.8508425,61.670568 44.46,62.06 C43.3411996,63.1148037 42.6325627,64.5320775 42.46,66.06 C42.3704159,66.9795666 42.4656156,67.9077635 42.74,68.79 L42.74,68.87 C43.2269453,70.31975 44.1752744,71.5701395 45.44,72.43 C45.7768162,72.6415109 46.1355811,72.8158639 46.51,72.95 L46.97,73.1 L47.47,73.2 L47.97,73.28 L48.35,73.34 L48.48,73.34 C48.8,73.34 49.33,73.34 49.8,73.34 L49.89,73.34 C50,73.73 50.13,74.12 50.27,74.5 C50.41,74.88 50.59,75.26 50.77,75.63 L50.31,76.02 L49.64,76.58 L49.64,76.58 C49.45,76.75 49.24,76.94 49.01,77.12 C48.57,77.49 48.07,77.88 47.52,78.27 C46.0542665,79.3350092 44.4314436,80.1649769 42.71,80.73 C42.2791028,80.859035 41.8418596,80.9658425 41.4,81.05 C40.1928777,81.3006851 38.9471223,81.3006851 37.74,81.05 L37.26,80.91 C36.9192184,80.8078161 36.5852219,80.6842374 36.26,80.54 L35.76,80.29 C33.898065,79.2214873 32.4793887,77.5226224 31.76,75.5 C31.66,75.22 31.55,74.93 31.45,74.62 C31.2485639,73.9639641 31.0882525,73.296 30.97,72.62 C30.7085864,70.7350155 30.5915792,68.8328126 30.62,66.93 C30.6607851,64.7483549 30.9458972,62.578149 31.47,60.46 C31.68,59.65 31.93,58.86 32.21,58.08 C32.39,57.6 32.58,57.08 32.79,56.65 C33.08,56 33.39,55.36 33.73,54.74 C34.07,54.12 34.35,53.74 34.73,53.19 C34.84,53.02 34.95,52.84 35.07,52.67 C35.19,52.5 35.37,52.36 35.52,52.2 C35.7445326,51.9735786 35.9815704,51.7599107 36.23,51.56 C36.7415383,51.1617533 37.29882,50.8260414 37.89,50.56 C38.2146909,50.4172287 38.5488117,50.2969452 38.89,50.2 C39.3631706,50.0538205 39.8484213,49.9500773 40.34,49.89 C40.8122738,49.8452102 41.2877262,49.8452102 41.76,49.89 C42.0628136,49.9163195 42.3635,49.963093 42.66,50.03 C43.8075319,50.2651644 44.9177199,50.6554123 45.96,51.19 C46.34,51.38 46.71,51.58 47.09,51.81 C48.7933342,52.8524319 50.3762719,54.0798793 51.81,55.47 L52.38,56.1 L52.44,56.16 C53.5816236,57.3464175 54.6032512,58.6427122 55.49,60.03 C54.5833103,60.5401008 53.7463735,61.1652825 53,61.89 L52.2,61.34 C51.896084,61.0811266 51.5599626,60.8626477 51.2,60.69 L51.15,60.69 Z M63.82,78.98 C63.53,79.07 63.25,79.14 62.97,79.2 L62.88,79.2 C62.5523615,79.2925146 62.2180181,79.3593832 61.88,79.4 C61.1726052,79.4694154 60.4589664,79.4391195 59.76,79.31 C59.53,79.31 59.3,79.22 59.08,79.16 C57.3854036,78.6834145 55.8356899,77.7934459 54.57,76.57 C54.2412235,76.1806854 53.9436358,75.7660688 53.68,75.33 C53.4225707,74.9048914 53.1921164,74.4640222 52.99,74.01 C52.7941559,73.5587765 52.6304154,73.0942883 52.5,72.62 C52.369887,72.1575038 52.2729738,71.686305 52.21,71.21 C52.1300571,70.5055943 52.1300571,69.7944057 52.21,69.09 C52.21,68.8566667 52.24,68.6266667 52.3,68.4 C52.4591212,67.4960181 52.7737818,66.6264721 53.23,65.83 L53.23,65.83 L53.23,65.83 C53.37,65.57 53.52,65.32 53.68,65.08 L53.74,64.99 C54.9348751,63.28567 56.6674941,62.0319863 58.66,61.43 C58.95,61.34 59.25,61.26 59.54,61.2 C59.83,61.14 60.14,61.1 60.44,61.06 C61.045182,60.9999764 61.654818,60.9999764 62.26,61.06 C62.45,61.06 62.66,61.06 62.88,61.14 C63.8057438,61.2932784 64.7069825,61.5690306 65.56,61.96 L65.82,62.08 C66.5571359,62.4368955 67.2323537,62.909548 67.82,63.48 C68.6816102,64.463841 69.3317368,65.6143268 69.73,66.86 C69.9853047,67.6477694 70.1431469,68.463847 70.2,69.29 C70.2714368,70.1740559 70.2107709,71.0638219 70.02,71.93 C69.931654,72.3399611 69.8078552,72.7414709 69.65,73.13 L69.65,73.25 C69.5510857,73.5892838 69.4342551,73.9230855 69.3,74.25 C69.0275096,74.8888729 68.6746639,75.4903909 68.25,76.04 C67.1272115,77.4472488 65.5976821,78.4739192 63.87,78.98 L63.82,78.98 Z M88.13,73.47 L87.86,74.23 C87.66,74.79 87.46,75.31 87.28,75.78 C85.15,80.34 82.41,83.16 79.13,84.18 C78.8607916,84.2652189 78.5870315,84.3353282 78.31,84.39 C77.4662026,84.5717809 76.6017611,84.6390527 75.74,84.59 C73.4289244,84.2985222 71.2817124,83.2425163 69.64,81.59 C69.44,81.41 69.27,81.24 69.12,81.09 L68.92,80.88 L68.18,80.1 L68.01,79.88 C68.8168605,79.3100801 69.5462933,78.6377918 70.18,77.88 C70.39,77.63 70.58,77.36 70.77,77.09 L71.05,77.22 C71.5944928,77.4495055 72.1606705,77.623714 72.74,77.74 C72.88,77.74 73.02,77.74 73.16,77.79 C73.5888226,77.8350015 74.0211774,77.8350015 74.45,77.79 C74.6213908,77.7731145 74.7916709,77.7464039 74.96,77.71 L75.15,77.66 C76.2232555,77.3836308 77.1906077,76.7955642 77.93,75.97 C78.3961994,75.4590565 78.7746437,74.8744951 79.05,74.24 C79.3289031,73.6076005 79.4915039,72.9300972 79.53,72.24 C79.5770365,71.5648606 79.4990639,70.8868379 79.3,70.24 C79.0546994,69.475536 78.6528285,68.7705591 78.12,68.17 C77.7722306,67.7653254 77.3720348,67.4088484 76.93,67.11 C76.4011104,66.7594659 75.8159338,66.502394 75.2,66.35 L74.8,66.26 L74.45,66.26 C74.0305432,66.2297899 73.6094568,66.2297899 73.19,66.26 L73.01,66.26 C72.86,66.26 72.66,66.26 72.43,66.31 C72.32,65.96 72.2,65.62 72.07,65.31 C71.6707399,64.2793933 71.1287855,63.3099345 70.46,62.43 L70.71,62.25 L70.82,62.16 L71.88,61.37 C72.18,61.16 72.53,60.92 72.88,60.67 C73.23,60.42 73.69,60.17 74.16,59.91 C75.1777296,59.3590528 76.2459533,58.9069831 77.35,58.56 C77.7599886,58.4287659 78.177385,58.3219124 78.6,58.24 C79,58.15 79.39,58.09 79.78,58.04 C80.5242622,57.9552566 81.2757378,57.9552566 82.02,58.04 C82.7023484,58.1089575 83.3738747,58.2600509 84.02,58.49 C84.34,58.61 84.65,58.75 84.96,58.9 C85.5660836,59.2192643 86.1303647,59.6122458 86.64,60.07 C87.1263589,60.5903713 87.5523921,61.1640066 87.91,61.78 C90.13,65.55 89.21,70.1 88.13,73.47 Z M72.92,68.95 L73.15,68.95 L73.35,68.95 L74.06,68.95 C74.1864607,68.9397857 74.3135393,68.9397857 74.44,68.95 C74.829826,69.0165054 75.1972966,69.1779177 75.51,69.42 C75.6737229,69.5332658 75.8246138,69.6640379 75.96,69.81 C76.1319036,69.9733159 76.2860909,70.1543184 76.42,70.35 C76.5785837,70.5846014 76.7031533,70.840474 76.79,71.11 C76.8931566,71.4498098 76.9304916,71.806189 76.9,72.16 C76.8789677,72.5294869 76.7908655,72.8920613 76.64,73.23 C76.5881266,73.3538942 76.5279913,73.4741648 76.46,73.59 C76.3306029,73.8108635 76.1798833,74.0185216 76.01,74.21 C75.6173084,74.6707628 75.0944016,75.0019371 74.51,75.16 L74.41,75.16 L74.19,75.16 L74.19,75.16 C73.8846769,75.2005973 73.5753231,75.2005973 73.27,75.16 C72.8587758,75.0719715 72.4569377,74.9447228 72.07,74.78 L72,74.78 C72.09,74.54 72.17,74.29 72.25,74.04 C72.4009636,73.6403351 72.5311378,73.2331236 72.64,72.82 C72.74,72.4 72.82,71.98 72.88,71.56 C72.9733547,70.6923154 72.9700007,69.8169438 72.87,68.95 L72.92,68.95 Z M98.04,110.8 C97.93,111.37 97.8,111.92 97.66,112.45 L97.66,112.45 C97.2231718,114.166992 96.6307199,115.840585 95.89,117.45 C95.5272385,118.26184 95.1199526,119.053043 94.67,119.82 C94.52,120.08 94.39,120.34 94.23,120.6 C92.4901061,123.308098 90.3335564,125.724514 87.84,127.76 C86.1608685,129.152178 84.3791509,130.41576 82.51,131.54 C81.97,131.87 81.42,132.19 80.86,132.54 C80.56,132.71 80.26,132.88 79.95,133.04 L79.95,133.04 C79.73,133.15 79.52,133.27 79.31,133.39 L79.31,133.39 C78.99,133.58 78.66,133.76 78.31,133.94 C77.74,134.24 77.15,134.54 76.56,134.83 C74.79,135.7 72.96,136.49 71.14,137.19 C67.91,139.36 55.84,141.78 54.8,141.99 L54.72,141.99 L53.79,142.18 L53.5,142.23 L53.28,142.23 L53.09,142.23 L53.09,142.23 L52.31,142.37 L52.31,142.37 L51.18,142.57 L49.18,142.89 L47.7,143.13 C46.82,143.26 45.7,143.41 44.5,143.51 C42.0575381,143.712857 39.6024619,143.712857 37.16,143.51 C36.06,143.42 34.92,143.28 33.75,143.08 C31.2625547,142.673233 28.8254862,142.002788 26.48,141.08 C25.8178087,140.791125 25.1762918,140.457002 24.56,140.08 C24.44,140 24.32,139.94 24.19,139.87 L24.19,139.87 C23.3,139.31 22.4,138.7 21.83,138.31 L21.83,138.31 L21.44,138.01 L21.23,137.86 L21.23,137.86 C20.98,137.68 20.74,137.5 20.49,137.3 C19.2915241,136.311671 18.1684106,135.235354 17.13,134.08 C16.91,133.84 16.69,133.61 16.47,133.35 L16.47,133.35 C16.6695703,133.496138 16.8802056,133.626531 17.1,133.74 C18.1533894,134.404232 19.2453133,135.005291 20.37,135.54 L20.44,135.54 C29.57,139.23 38.44,138.44 42.83,137.79 C42.83,137.79 59.44,135.7 69.15,130.72 C71.04,129.9 72.96,128.99 74.89,127.97 L74.89,127.97 L75.62,127.59 L75.62,127.59 C76.74,126.99 77.82,126.39 78.85,125.76 C86.34,121.21 91.35,115.66 93.75,109.3 C94.03,108.633333 94.3,107.913333 94.56,107.14 C94.8931659,106.194656 95.1670311,105.229448 95.38,104.25 C95.9738318,101.71474 96.2327045,99.1125643 96.15,96.51 C96.1540234,95.5795991 96.0871632,94.6502436 95.95,93.73 C95.7827021,92.2676106 95.5356676,90.8154484 95.21,89.38 C97.3674302,94.3215317 98.5035224,99.6482396 98.55,105.04 L98.55,105.04 C98.5782604,106.974857 98.3904305,108.906821 97.99,110.8 L98.04,110.8 Z" id="Shape" fill="#231F20" fill-rule="nonzero"></path>
                    <path d="M15.5,78.4 C15.5,78.4 15.5,78.4 15.5,78.46 C16.4906333,79.090561 17.2053371,80.0732787 17.5,81.21 C18.0807427,82.9442698 17.4695221,84.8548403 15.99,85.93 C17.3963653,87.1803452 17.8925129,89.1649353 17.24,90.93 C16.24,94.17 12.47,94.22 12.47,94.22 C12.3044006,95.9397319 11.1210869,97.3912634 9.47,97.9 C7.7106048,98.5342872 5.80859402,98.6624737 3.98,98.27 L3.98,98.27 C3.9,98.8 3.82,99.47 3.75,100.27 C3.4989612,103.336312 3.61646643,106.421664 4.1,109.46 C4.17,109.87 4.25,110.28 4.33,110.7 C4.45,111.33 4.6,111.98 4.77,112.63 C4.94,113.28 5.12,113.93 5.34,114.63 C5.80666667,114.503333 6.28666667,114.383333 6.78,114.27 C7.27,114.16 7.78,114.05 8.29,113.96 L9.88,113.68 L11.56,113.45 C11.9549331,113.386673 12.3592393,113.41751 12.74,113.54 C14.05,114 13.67,115.72 12.12,116.06 C10.12,116.5 8.22,117.06 6.44,117.56 C7.31335914,119.583984 8.3959089,121.511123 9.67,123.31 L10.6,122.85 L11.49,122.44 C12.07,122.18 12.61,121.96 13.1,121.77 C13.3139868,121.689801 13.5349259,121.629545 13.76,121.59 C14.0057584,121.560064 14.2542416,121.560064 14.5,121.59 C14.6191436,121.609377 14.7362883,121.639499 14.85,121.68 C15.1056722,121.767812 15.3149003,121.955396 15.43,122.2 C15.4752345,122.295632 15.5088087,122.396354 15.53,122.5 C15.5810855,122.786242 15.4786598,123.078344 15.26,123.27 C14.9581975,123.553823 14.6222896,123.799036 14.26,124 L13.78,124.26 L13.24,124.55 L11.95,125.25 L11.39,125.54 C11.61,125.8 11.84,126.04 12.06,126.28 C12.28,126.52 12.62,126.88 12.9,127.17 C13.6944192,127.991425 14.5358333,128.76606 15.42,129.49 C15.87,129.86 16.31,130.2 16.75,130.49 C17.13,130.22 17.53,129.94 17.95,129.67 L19.3,128.82 C19.3869339,128.761503 19.4810418,128.714449 19.58,128.68 L19.85,128.59 C19.9364384,128.581105 20.0235616,128.581105 20.11,128.59 L20.36,128.59 C20.5796922,128.617399 20.7856564,128.711654 20.95,128.86 C21.1946361,129.094587 21.3037957,129.437122 21.24,129.77 C21.1232454,130.254459 20.8356414,130.680539 20.43,130.97 L19.11,132.07 C19.8518916,132.518725 20.6162208,132.92926 21.4,133.3 C23.1781391,134.019758 25.0149139,134.585177 26.89,134.99 C27.48,135.12 28.08,135.24 28.66,135.34 C29.24,135.44 29.83,135.52 30.4,135.59 C30.97,135.66 31.53,135.72 32.08,135.76 C34.51914,135.962442 36.97086,135.962442 39.41,135.76 C40.65,135.65 41.74,135.51 42.62,135.38 L44.1,135.14 C44.77,135.04 45.45,134.93 46.1,134.81 L47.23,134.61 L48,134.47 L48,134.47 L48.19,134.47 L48.4,134.47 L48.7,134.41 L49.63,134.22 L49.71,134.22 C50.71,134.01 62.82,131.59 66.05,129.42 C67.87,128.71 69.69,127.93 71.47,127.06 C72.06,126.77 72.64,126.47 73.22,126.16 L74.22,125.62 L74.22,125.62 L74.87,125.26 L75.77,124.76 C76.34,124.45 76.89,124.13 77.43,123.76 C79.2968993,122.63232 81.0783674,121.368915 82.76,119.98 C83.42,119.42 84.05,118.86 84.65,118.28 C85.8065086,117.173073 86.8732011,115.97597 87.84,114.7 C88.31,114.08 88.74,113.45 89.14,112.81 C89.3,112.56 89.44,112.3 89.59,112.04 C90.042016,111.270744 90.449357,110.476095 90.81,109.66 C90.89,109.49 90.95,109.3 91.03,109.12 L91.25,108.58 C91.41,108.19 91.57,107.78 91.72,107.37 L91.13,107.37 L89.94,107.37 C89.5070751,107.404145 89.0734029,107.313941 88.69,107.11 C88.4319612,106.962843 88.2444075,106.717581 88.17,106.43 C88.1241448,106.259699 88.1241448,106.080301 88.17,105.91 L88.26,105.71 C88.3446627,105.574972 88.4530787,105.456392 88.58,105.36 L88.69,105.28 L88.8,105.21 L89.06,105.1 L89.36,105.03 L90.22,104.89 L91.04,104.77 C91.57,104.7 92.04,104.64 92.58,104.6 C92.72,104.06 92.85,103.52 92.96,102.95 C93.3339559,101.083794 93.5082705,99.1830942 93.48,97.28 L92.76,97.44 L92.12,97.59 L91.58,97.71 L91.13,97.81 L90.13,98.03 C89.6549781,98.1601301 89.161095,98.2074887 88.67,98.17 C88.5055726,98.1555168 88.3490565,98.0929103 88.22,97.99 C88.1498572,97.9320757 88.0920496,97.8606664 88.05,97.78 C87.9801043,97.6595491 87.9326678,97.5274045 87.91,97.39 C87.8679913,97.1562751 87.910529,96.9152285 88.03,96.71 C88.0906785,96.6037885 88.1609731,96.5033677 88.24,96.41 L88.37,96.28 C88.5289437,96.1302813 88.7071891,96.0024828 88.9,95.9 C89.0717147,95.7970846 89.2524645,95.7100569 89.44,95.64 C89.7,95.54 89.98,95.45 90.28,95.35 L90.97,95.13 C91.69,94.91 92.48,94.69 93.32,94.49 C93.1996332,93.3016714 93.0194042,92.1201704 92.78,90.95 C92.69,90.53 92.6,90.11 92.5,89.69 C92.36,89.12 92.21,88.53 92.05,87.94 L90.67,88.56 C89.75,88.99 88.8,89.45 87.84,89.94 L86.41,90.69 C86.2108825,90.8015946 85.9946025,90.8793202 85.77,90.92 C85.6702415,90.9298276 85.5697585,90.9298276 85.47,90.92 C85.3252798,90.9189403 85.1811021,90.9021754 85.04,90.87 C84.9119723,90.8324662 84.7880215,90.7822158 84.67,90.72 C84.5973212,90.678563 84.5301296,90.6281693 84.47,90.57 L84.3,90.4 C84.2594452,90.3321065 84.2227211,90.2619969 84.19,90.19 C84.0995136,89.9481878 84.0995136,89.6818122 84.19,89.44 C84.2209296,89.3445375 84.2646614,89.25371 84.32,89.17 C84.376403,89.0721473 84.4399067,88.9785629 84.51,88.89 C84.5956895,88.7893236 84.6893236,88.6956895 84.79,88.61 C84.905225,88.5064098 85.0289988,88.4127431 85.16,88.33 C85.55,88.06 85.94,87.81 86.33,87.56 C87.48,86.82 88.59,86.18 89.68,85.61 C90.17,85.35 90.68,85.12 91.13,84.89 L91.13,84.89 C90.85,84.12 90.52,83.36 90.13,82.61 C89.74,81.86 89.52,81.38 89.19,80.79 L88.85,80.2 C88.74,80 88.63,79.8 88.51,79.61 L88.34,79.33 C87.1068539,81.5441008 85.420056,83.4728434 83.39,84.99 C82.6604399,85.516725 81.8758413,85.9626721 81.05,86.32 C80.6464147,86.498429 80.2323108,86.6520482 79.81,86.78 C79.47,86.89 79.11,86.98 78.76,87.06 C78.3599421,87.1402628 77.9560978,87.2003388 77.55,87.24 C76.8630619,87.3202154 76.1704311,87.3402917 75.48,87.3 C74.2401721,87.2106082 73.0253702,86.9060618 71.89,86.4 C71.68,86.3 71.46,86.2 71.26,86.09 C70.84,85.88 70.45,85.65 70.08,85.42 L69.55,85.06 C68.6889268,84.4661466 67.8824122,83.7968399 67.14,83.06 L66.9,82.8 L66.09,81.93 L65.54,81.28 L64.6,81.62 C64.25,81.72 63.91,81.81 63.6,81.89 L63.25,81.98 L63.07,81.98 C60.8132452,82.4035428 58.4800032,82.0842571 56.42,81.07 C55.7502973,80.7578011 55.1080344,80.389838 54.5,79.97 C53.8748801,79.5390191 53.2862327,79.0573985 52.74,78.53 L52.64,78.43 L52.26,77.94 L51.43,78.64 C50.92,79.09 50.31,79.59 49.64,80.09 C49.16,80.45 48.64,80.82 48.07,81.18 C47.0206084,81.8488541 45.912741,82.4211964 44.76,82.89 C44.37,83.04 43.96,83.19 43.54,83.32 C43.12,83.45 42.68,83.56 42.26,83.65 C41.4060698,83.838596 40.5344985,83.9358097 39.66,83.94 C38.8226198,83.9414023 37.9876168,83.8508599 37.17,83.67 C36.5355755,83.5076398 35.9165539,83.2901458 35.32,83.02 C34.0067924,82.4338632 32.82884,81.5827415 31.86,80.52 C31.5259967,80.1567158 31.2153731,79.7726113 30.93,79.37 C30.2236435,78.3529008 29.6553519,77.2465818 29.24,76.08 C28.8961263,75.1037055 28.6352016,74.1001492 28.46,73.08 L28.46,73.02 C28.35,72.2 28.26,71.38 28.2,70.58 C28.14,69.78 28.1,68.98 28.09,68.2 L27.81,68.34 L27.45,68.51 C26.35,69.03 25.31,69.51 24.37,70.02 L23.45,70.5 C22.27,71.12 21.27,71.69 20.52,72.18 C20.44,72.24 19.25,72.93 18.16,73.73 C18.0306554,73.8296074 17.9594131,73.9870903 17.97,74.15 C18.0310517,75.0369103 17.8440763,75.923312 17.43,76.71 C16.971179,77.4545362 16.2985916,78.0434858 15.5,78.4 Z M69.67,97.55 C70.322972,96.2497159 71.6875612,95.4632092 73.14,95.55 C74.81,95.65 76.14,97.22 76.61,98.71 C77.18,100.56 77.49,102.83 76.09,104.44 C75.4373211,105.126798 74.5160102,105.492397 73.57,105.44 C72.1149679,105.386058 70.8235047,104.492569 70.26,103.15 C69.288103,101.448222 69.0740947,99.416957 69.67,97.55 L69.67,97.55 Z M48.67,113.77 C49.3512016,112.545434 50.4977989,111.647627 51.85,111.28 L52.15,111.18 C54.76,110.41 56.96,111.58 57.5,113.11 C58.04,114.64 57.57,116.85 54.5,117.92 L54.04,118.06 L54.04,118.06 C51.24,118.89 49.22,118.17 48.5,116.06 C48.2532986,115.313448 48.3034314,114.50058 48.64,113.79 L48.67,113.77 Z M25.13,110.45 C26.2809127,109.554879 27.8549147,109.432894 29.13,110.14 C30.6814119,111.357549 31.6472537,113.173041 31.79,115.14 C32.065117,116.571192 31.4884017,118.032464 30.31,118.89 C29.5547339,119.463213 28.5841564,119.671979 27.66,119.46 C25.61,118.91 24.59,116.85 24.03,115 C23.56,113.55 23.77,111.46 25.13,110.45 Z" id="Shape" fill="#DEA36D" fill-rule="nonzero"></path>
                    <path d="M71.51,126.9 C69.73,127.77 67.91,128.55 66.09,129.26 C67.91,128.55 69.73,127.77 71.51,126.9 Z" id="Path" fill="#DEA36D" fill-rule="nonzero"></path>
                    <polygon id="Path" fill="#DEA36D" fill-rule="nonzero" points="67.19 82.94 66.95 82.68 66.14 81.81 66.95 82.68"></polygon>
                    <path d="M84.23,90.12 C84.1395136,89.8781878 84.1395136,89.6118122 84.23,89.37 C84.2609296,89.2745375 84.3046614,89.18371 84.36,89.1 C84.3046614,89.18371 84.2609296,89.2745375 84.23,89.37 C84.1395136,89.6118122 84.1395136,89.8781878 84.23,90.12 Z" id="Path" fill="#DEA36D" fill-rule="nonzero"></path>
                    <path d="M87.87,114.55 C86.9032011,115.82597 85.8365086,117.023073 84.68,118.13 C85.8365086,117.023073 86.9032011,115.82597 87.87,114.55 L87.87,114.55 Z" id="Path" fill="#DEA36D" fill-rule="nonzero"></path>
                    <path d="M84.52,88.82 C84.6056895,88.7193236 84.6993236,88.6256895 84.8,88.54 C84.915225,88.4364098 85.0389988,88.3427431 85.17,88.26 C85.0389988,88.3427431 84.915225,88.4364098 84.8,88.54 C84.6993236,88.6256895 84.6056895,88.7193236 84.52,88.82 Z" id="Path" fill="#DEA36D" fill-rule="nonzero"></path>
                    <path d="M19.59,128.66 L19.86,128.57 C19.9464384,128.561105 20.0335616,128.561105 20.12,128.57 C20.0335616,128.561105 19.9464384,128.561105 19.86,128.57 L19.59,128.66 Z" id="Path" fill="#DEA36D" fill-rule="nonzero"></path>
                    <polygon id="Path" fill="#DEA36D" fill-rule="nonzero" points="8.32 113.93 9.91 113.65 11.59 113.42 9.91 113.65"></polygon>
                    <path d="M88.71,107.01 C88.4519612,106.862843 88.2644075,106.617581 88.19,106.33 C88.2644075,106.617581 88.4519612,106.862843 88.71,107.01 L88.71,107.01 Z" id="Path" fill="#DEA36D" fill-rule="nonzero"></path>
                    <path d="M113.33,91.55 C113.223298,91.3262306 113.103075,91.1091627 112.97,90.9 C112.077653,89.4799819 110.484519,88.6566073 108.81,88.75 C106.616667,88.75 103.79,89.75 100.33,91.75 C100.115441,91.8677203 99.8747317,91.9296169 99.63,91.93 C99.2256164,91.9325876 98.8395863,91.7614233 98.57,91.46 C98.3237638,91.1639908 97.9548496,90.9979794 97.57,91.01 C97.2813828,91.0145115 96.9988627,91.0937549 96.75,91.24 C96.1964676,91.4866728 95.8917735,92.0877133 96.02,92.68 C96.2276043,93.3435784 95.9167503,94.0589685 95.29,94.36 C91.99,95.97 92.72,99.36 93.41,100.89 C94.0212232,102.281063 95.2318217,103.318718 96.7,103.71 C97.1431616,103.809212 97.595869,103.859513 98.05,103.86 C100.05,103.86 102.18,102.95 104.72,101.51 C107.027821,100.274614 109.188262,98.7817625 111.16,97.06 C113.34,95.07 114.13,93.25 113.33,91.55 Z" id="Path" fill="#FFFFFF" fill-rule="nonzero"></path>
                    <path d="M115.61,90.55 C115.462115,90.2021905 115.284804,89.8676423 115.08,89.55 C113.735721,87.4011236 111.342649,86.1377952 108.81,86.24 C106.3,86.24 103.33,87.24 99.76,89.18 C99.1275701,88.7355681 98.3729705,88.498009 97.6,88.5 C96.8809686,88.5056875 96.1753158,88.695009 95.55,89.05 C94.2689839,89.7195372 93.475584,91.0547712 93.5,92.5 C89.94,94.71 89.74,98.84 91.17,101.93 C92.1125347,104.018548 93.9514478,105.566913 96.17,106.14 C96.7936163,106.280062 97.4308488,106.350493 98.07,106.350003 C100.86,106.350003 103.51,105.07 105.97,103.68 C108.452936,102.350387 110.774837,100.73982 112.89,98.88 C116.66,95.39 116.45,92.42 115.61,90.55 Z M98.13,103.87 C97.675869,103.869513 97.2231616,103.819212 96.78,103.72 C95.3118217,103.328718 94.1012232,102.291063 93.49,100.9 C92.8,99.41 92.07,95.98 95.37,94.37 C95.9967503,94.0689685 96.3076043,93.3535784 96.1,92.69 C95.9717735,92.0977133 96.2764676,91.4966728 96.83,91.25 C97.0788627,91.1037549 97.3613828,91.0245115 97.65,91.02 C98.0348496,91.0079794 98.4037638,91.1739908 98.65,91.47 C98.9195863,91.7714233 99.3056164,91.9425876 99.71,91.94 C99.9547317,91.9396169 100.195441,91.8777203 100.41,91.76 C103.87,89.76 106.696667,88.76 108.89,88.76 C110.564519,88.6666073 112.157653,89.4899819 113.05,90.91 C113.183075,91.1191627 113.303298,91.3362306 113.41,91.56 C114.16,93.25 113.41,95.07 111.27,97.07 C109.298262,98.7917625 107.137821,100.284614 104.83,101.52 C102.21,102.96 100.13,103.87 98.13,103.87 Z" id="Shape" fill="#231F20" fill-rule="nonzero"></path>
                    <path d="M114.31,67.31 C114.48,66.65 113.91,65.47 112.36,64.97 L112.17,64.91 C111.388892,64.620571 110.524324,64.6565946 109.77,65.01 C109.466915,65.1738348 109.240574,65.4504742 109.14,65.78 C108.84,66.88 109.52,67.71 111.19,68.25 L111.51,68.35 C113.02,68.75 114.01,68.38 114.31,67.31 Z" id="Path"></path>
                    <path d="M112.99,63.1 L112.69,63.01 C111.325526,62.5397542 109.828941,62.6407286 108.54,63.29 C107.808044,63.6973118 107.265666,64.3761816 107.03,65.18 C106.43,67.38 107.69,69.18 110.5,70.09 L110.64,70.09 C110.78,70.09 110.92,70.18 111.06,70.21 C111.628784,70.3758978 112.217553,70.4633721 112.81,70.47 C114.486657,70.5667825 115.998158,69.4656062 116.42,67.84 C116.86,66.26 115.68,63.97 112.99,63.1 Z M111.51,68.35 L111.19,68.25 C109.52,67.71 108.84,66.88 109.14,65.78 C109.240574,65.4504742 109.466915,65.1738348 109.77,65.01 C110.524324,64.6565946 111.388892,64.620571 112.17,64.91 L112.36,64.97 C113.91,65.47 114.48,66.65 114.31,67.31 C114.01,68.38 113.02,68.75 111.51,68.35 Z" id="Shape" fill="#231F20" fill-rule="nonzero"></path>
                </g>
            </g>
        </g>
    </g>
</svg>